<?xml version="1.0" encoding="utf-8"?>
<!-- Generator: Adobe Illustrator 26.1.0, SVG Export Plug-In . SVG Version: 6.00 Build 0)  -->
<svg version="1.1" id="Layer_1" xmlns="http://www.w3.org/2000/svg" xmlns:xlink="http://www.w3.org/1999/xlink" x="0px" y="0px"
	 viewBox="0 0 1920 1080" style="enable-background:new 0 0 1920 1080;" xml:space="preserve">
<style type="text/css">
	.st0{clip-path:url(#SVGID_00000088820802654091908020000003853137639271073712_);}
	.st1{fill:#63738E;}
	.st2{fill:#62738E;}
	.st3{fill:#63738F;}
	.st4{fill:#F35384;}
	.st5{fill:#E5F0F6;}
	.st6{fill:#A9E5FA;}
	.st7{fill:#262122;}
	.st8{fill:#F8C2AA;}
	.st9{fill:#6EC0DD;}
	.st10{fill:#F4A593;}
	.st11{fill:#C03D63;}
	.st12{fill:#445167;}
	.st13{fill:#FCFCFC;}
</style>
<g>
	<g>
		<defs>
			<rect id="SVGID_1_" x="459" y="40" width="999.88" height="999.92"/>
		</defs>
		<clipPath id="SVGID_00000063591604613694888390000017425782201815395721_">
			<use xlink:href="#SVGID_1_"  style="overflow:visible;"/>
		</clipPath>
		<g style="clip-path:url(#SVGID_00000063591604613694888390000017425782201815395721_);">
			<path class="st1" d="M978.96,330.88c7.88,1.04,14.87,4.53,21.9,7.94c1.81,0.88,2.47,2.62,3.4,4.16
				c10.96,18.25,20.45,37.27,29.59,56.48c0.58,1.22,0.11,3.69,2.77,3.29c0.35,6.73,3.37,12.73,5.24,19.04
				c2.23,9.67,3.98,19.43,4.7,29.34c0.12,1.7,1.41,4.31-1.81,4.73c-10.18,1.36-20.38,1.97-30.58,0.15
				c-6.78-1.82-13.56-3.63-20.33-5.45c5.04,7.42,12.41,10.71,20.19,13.34c0.23,0.95,0.6,1.9,0.66,2.87
				c1.34,21.75,2.85,43.5,3.87,65.27c0.5,10.57,0.09,21.18,0.09,32.13c-0.68,0.27-1.06-2.35-2.57-1.49
				c1.85,28.42,3.98,56.79,5.49,85.19c2.31,43.37,4.32,86.76,5.35,130.18c0.41,17.29,1.47,34.58,0.82,51.89
				c-1.29,1.42-0.77,3.17-0.77,4.78c-0.04,9.81-0.1,19.63,0.03,29.44c0.05,3.43-0.54,5.22-4.61,6.03
				c-4.72,0.93-8.81-0.47-13.14-1.24c-0.48-1.03-0.97-2.07-1.45-3.1c-0.02-0.33-0.04-0.67-0.06-1c0.14-0.92,0.07-1.79-0.61-2.51
				c-0.12-1.49-0.14-3-0.38-4.47c-4.81-29.06-9.66-58.11-14.46-87.17c-7.49-45.31-14.94-90.63-22.42-135.94
				c-1.99-12.03-4.02-24.04-6.03-36.06c-1.09,1.99-1.54,3.93-1.93,5.87c-12.3,60.83-24.62,121.65-36.89,182.49
				c-5.36,26.58-10.62,53.19-15.92,79.78c-1.24,2.69-0.29,6.97-5.13,7.04c-5.57,0.12-11.2,0.56-16.07-3.01
				c-0.41-0.34-0.81-0.69-1.22-1.03c0.54-14.65,0.89-29.3,1.64-43.94c2.1-41.08,4.4-82.15,7.57-123.16
				c1.77-22.91,3.69-45.8,5.67-68.69c1.67-19.24,3.56-38.46,5.31-57.69c0.13-1.44,0.93-3.82-0.42-4.17
				c-3.5-0.92-2.51-3.49-2.64-5.57c-1.25-18.94-2.5-37.88-3.58-56.83c-0.83-14.62-1.42-29.26-2.12-43.88
				c3.37,2.8,3.38,7.22,5.18,10.77c0.67,1.32,0.48,3.53,3.07,2.97c15.58-3.39,30.2-8.54,40.54-21.7c0.07-0.14,0.15-0.29,0.22-0.43
				c-0.07,0.14-0.15,0.29-0.22,0.43c-1.5-0.09-2.93,0.13-4.38,0.66c-9.96,3.61-20.17,6.21-30.65,7.95
				c-8.96,1.49-9.24,1.68-14.03-5.6c-9.09-13.62-15.77-28.4-21.06-43.84c-0.39-1.6-0.74-3.22-1.18-4.81
				c-5.47-19.76-9.81-39.65-6.84-60.37c2.56-11.83,7.7-21.94,20.31-25.31c10.37-2.78,21.08-4.25,31.9-4.32
				c-0.08,1.39,1.31,1.65,1.92,2.5c-0.61,1.72,0.27,3.16,0.75,4.73c1.81,5.92,3.74,11.81,5.15,17.83c1.52,6.49,3,13.05,4.78,19.42
				c2.21,7.92,3.41,16.02,5.53,23.9c1.46,5.42,0.99,11.21,3.55,16.34c-5.98-2.83-11.91-5.64-18.63-6.49
				c-8.18-1.03-10.51,0.3-11.84,8.43c-1.03,6.27-0.83,12.51,5.23,16.49c9.07,5.96,27.88,0.26,32.48-9.65
				c1.46-0.63,2.92-1.25,4.37-1.88c7.88-1.93,15.24-5.32,22.75-8.27c7.42-1.53,8.88-6.5,7.84-13.16c-1.52-9.77-2.54-19.66-3.4-29.46
				c-0.9-10.33-2.53-20.61-2.81-31C978.74,331.64,978.85,331.26,978.96,330.88z M1005.85,551.94c0.15,0.14,0.3,0.28,0.44,0.42
				c-0.14-0.15-0.27-0.3-0.41-0.46c-0.16-0.14-0.31-0.27-0.47-0.41C1005.56,551.64,1005.71,551.79,1005.85,551.94z M999.86,424.93
				c-0.12,0.06-0.26,0.09-0.35,0.18c-0.06,0.05-0.04,0.18-0.06,0.28c0.14-0.15,0.29-0.29,0.43-0.44c0.12-0.05,0.26-0.08,0.35-0.16
				c0.06-0.05,0.05-0.18,0.07-0.27C1000.16,424.66,1000.01,424.79,999.86,424.93z M977.6,442.22c-5.86,2.74-11.51,5.85-16.82,9.57
				c-11.2,2.03-11.84,2.89-10.1,13.53c0.08,0.49,0.09,0.99,0.09,1.49c0,19.58,3.16,39.05,2.15,58.67
				c-0.03,6.5-0.21,12.99-0.04,19.49c0.12,4.66-1.28,8.43-4.95,11.38c-4.27,3.43-8.7,6.54-13.65,9c-4.29,2.12-8.89,3.39-13.25,5.26
				c11.84-0.11,21.99-4.14,30.39-12.58c2.39-2.4,4.07-4.79,3.47-8.27c-0.73-4.24,1.43-4.95,5.12-4.87
				c7.65,0.17,15.31-0.12,22.97-0.14c5.48-0.01,11.42-4.8,16.58,2.65c-0.64-6.05-1.36-10.94-1.62-15.85
				c-0.36-6.61-0.21-6.62-6.85-6.63c5.79-0.27,6.15-3.83,5.85-8.6c-0.57-9.1-1.81-18.15-2.56-27.22
				c-1.08-12.99-3.14-25.91-3.59-38.98c-2.92-9.33,4.4-15.4,7.35-23.19C991.45,432.49,983.94,436.56,977.6,442.22z M1001.83,394.95
				c-0.61-1.37-1.55-2.68-1.77-4.1c-1.75-11.34-5.1-22.28-8.28-33.25c-1.87-6.46-3.67-13.02-7.32-18.8
				c1.48,7.64,3.44,15.13,5.1,22.68c2.51,11.46,5.9,22.74,7.37,34.43c-1.69,1.37-4.24,1.52-5.76,3.77
				c7.78,2.97,11.9,8.4,12.45,16.28c0.22,3.11,1.46,3.09,3.82,2.14c4.31-1.74,8.64-3.53,13.09-4.85c3.79-1.13,3.69-3.04,2.09-5.88
				C1018.01,399.29,1011.07,395.21,1001.83,394.95z M900.79,353.07c5.15,14.58,10.31,29.16,15.46,43.74
				c0.99-20.44-0.15-40.7,0.91-60.98c-2.16,11.7-3.71,23.42-3.82,35.38C909.43,364.8,906.36,358.22,900.79,353.07z"/>
			<path class="st2" d="M683.12,383.63c6.68,2.03,13.16,4.53,19.14,8.17c1.69,1.03,3.19,2.02,3.7,4.32
				c4.7,21.03,8.78,42.16,11.17,63.6c0.04,1.85-0.76,3.84,0.86,5.44c0.08,1.32,0.1,2.65,0.24,3.97c3.25,30.54,4.66,61.14,2.71,91.84
				c-3.27-3.26-7.43-3.82-11.8-4.18c-4.98-0.4-8.71,0.81-10.4,5.96c-0.18,0.53-0.96,0.87-1.47,1.3c-3.24,0.48-5.67,4.35-5.28,5.47
				c1.68,4.81,1.32,9.11-0.89,13.86c2.02-1.96,4.1,0.8,5.95-0.64c0.66,0.64,1.32,1.29,1.98,1.93c0.09,0.81,0,2.26,0.29,2.35
				c5.47,1.58,3.13,6.04,3.59,9.44c0.28,2.11-0.56,4.33,0.63,6.35c0.81,5.81-2.11,11.32-1.51,17.07c0.55,5.29-1.01,10.35-1.2,15.57
				c-0.28,7.52-1.9,14.99-2.94,22.48c-1.69,1.3-3.69,2.59-0.07,3.99c-0.03,0.33-0.05,0.67-0.08,1c-2.37,0.94-6.79,0.48-3.1,5.27
				c0.95,1.23,0.82,3.69-0.16,5.22c-1.97,3.1-0.76,5.78,0.55,8.54c-0.95,6.27-1.88,12.55-2.85,18.82c-0.45,2.9-0.41,6.11-4.08,7.2
				c-2.16,0.2-5.24-1.25-5.22,2.89c-7.29,1.14-14.18,4.7-21.95,3.2c-2.35-0.45-1.86,2.12-1.94,3.69
				c-6.03,0.61-12.04,0.64-17.99-0.73c-1.56-1.15-3.08-2.34-4.67-3.43c-3.64-2.51-7.21-2.79-10.61,0.46
				c-0.27,0.07-0.53,0.05-0.78-0.06c1.13-7.72,0.49-9.03-5.86-12.08c-0.06-0.33-0.12-0.66-0.18-0.99c2.83-0.6,2.14-2.31,1.35-4.12
				c-3.21-7.29-4.38-14.98-4.3-22.89c0.79-3.05,2.54-7,0.36-9.06c-4.99-4.71-4.69-10.72-5.18-16.37c-0.51-5.86-1.85-11.61-2-17.5
				c-0.07-2.66,0.46-5.58-0.46-7.92c-2.24-5.68,1.02-11.73-1.64-17.26c-0.17-0.36,0.1-0.98,0.28-1.44c0.8-2.14-0.19-3.97-0.54-6.01
				c-0.92-5.45-2.48-11.09,1.29-16.57c1.66-2.41,3.88-5.36,2.54-9.11c-2.39-6.67-2.7-13.57-1.65-20.56c2-0.08,4-0.15,6-0.23
				c0.12,0.73,0.21,1.89,1.12,1.55c1.09-0.4,0.37-1.15-0.26-1.62c2.3-1.29,3.63-3.1,3.1-5.88c2.68-0.01,5.36-0.01,8.04-0.02l0.01,0
				c1,3.63,4,1.32,5.99,2.01c0.46,1.28-2.25,3.28,0.81,3.9c1.26,0.26,2.91,0.29,3.03-1.57c0.2-2.99-2.2-2.14-3.84-2.34
				c0.86-2.85,2.74-4.24,5.76-3.99c1.61,5.42,5.42,1.58,8.23,1.96c0.27,8.13,1.36,9.61,8.58,10.91c2.56,0.46,5.12,0.76,7.45,2
				c-1.13,1.93-3.1,3.69-0.72,6.13c1.01,1.04,0.99,2.6,0.22,3.75c-2.16,3.25-1,6.32,0.26,9.4c0.36,0.87,1.47,1.67,0.25,2.51
				c-0.71,0.49-1.53-0.08-2.3-0.46c-2.8-1.39-5.6-2.83-8.52-3.95c-1.75-0.67-3.56-0.41-5.07,1.08c-1.82,1.8-0.08,2.97,0.61,4.34
				c1.91,3.84,3.78,7.71,5.77,11.51c0.73,1.39,0.42,4.29,3.3,3.16c2.11-0.83,1.7-2.64,1.35-4.64c-0.72-4.11,1.36-6.07,5.35-5.34
				c1.33,0.24,2.52,0.86,3.69-0.3c1.78-1.75-0.66-2.87-0.71-4.71c5.5,1.64,8.81-1.72,10.81-5.67c1.9-3.75-2.88-4.93-4.55-7.34
				c-0.93-1.35-2.33-2.37-3.49-3.57c-1.59-1.65-3.71-3.01-3.3-5.79c2.02,0.25,4.22-0.67,6.03,0.92c-0.29,2.63,0.51,4.87,2.25,6.88
				c3.77,4.33,7.3,5.22,10.09,2.03c2.12-2.43,4.5-5.03,3.62-8.81c0.65-0.22,1.7,0.4,1.94-1.14c-10.24,0.93-19.92-1.32-29.15-5.18
				c-4.83-2.02-9.22-5.1-13.81-7.7c-0.08-2.16,0.25-4.42-0.3-6.45c-3.48-12.75-4.95-25.81-5.51-38.91
				c-0.85-19.83,1.84-39.25,7.58-58.33c3.93-13.07,10.12-24.88,17.04-36.5c2.25-3.77,6.23-6.32,7.24-10.85
				C676.36,391.13,680.64,388.2,683.12,383.63z M696,526.32c-0.59,3.67-4.72,6.33-2.21,11c2.75,5.12,4.28,10.84,5.83,17.5
				c0.96-9.22-0.38-17.3-0.76-25.4c-3.19-24.23-6.23-48.49-11.93-72.31c-3.54,18.67-2.17,36.9,4.4,54.76
				C693.07,516.61,695.92,521.03,696,526.32z M668.68,525.08c3.64-1.13,7.82-0.86,11.45-3.53c2.95-2.17,4.46-5.04,3.5-8.04
				c-1.05-3.3-4.65-1.55-7.02-1.42c-5.59,0.32-11.15,1.17-16.72,1.82c-1.39,0.16-3.26-0.53-3.78,1.47
				c-0.46,1.78-0.34,3.57,0.99,5.15C660.08,524.08,664.3,524.25,668.68,525.08z M609.64,584.65c0,4.53,0,9.06,0,13.59
				C611.09,593.67,611.13,589.14,609.64,584.65z M689.09,575.8c1.22-0.06,1.73-0.77,1.72-1.91c-0.01-1.16-0.62-1.81-1.79-1.84
				c-1.48-0.04-2.07,0.79-1.96,2.17C687.16,575.42,687.96,575.85,689.09,575.8z M627.67,550.34c-0.12,0.28-0.24,0.55-0.36,0.83
				c0.28,0.12,0.61,0.39,0.81,0.31c0.2-0.08,0.26-0.51,0.37-0.78C628.22,550.58,627.95,550.46,627.67,550.34z"/>
			<path class="st3" d="M1296.3,563.51c1.49,19.75,3.1,39.49,4.43,59.25c3.69,54.83,6.1,109.73,7.68,164.66
				c0.67,23.47,1,46.95,1.49,70.43c0,1.65,0.01,3.3,0.01,4.96c-5.87,1.63-11.74,2.43-17.64,0.17c-1.85-2-0.87-4.85-2.11-7.04
				c-2.21-13.96-4.31-27.93-6.64-41.87c-9.58-57.24-19.22-114.48-28.85-171.71c-1.07-6.38-2.24-12.75-3.36-19.12
				c-1.1,0.84-1.3,1.59-1.46,2.36c-8.54,42.21-17.11,84.41-25.62,126.62c-7.09,35.2-14.12,70.42-21.17,105.62
				c-1.73,3.36,0.2,8.66-5.32,10.01c-5.16,1.03-9.8-1.81-14.8-1.95c-0.36-1.34-0.72-2.68-1.08-4.03
				c0.75-15.63,1.39-31.26,2.27-46.88c2.49-44.53,5.22-89.05,8.88-133.5c1.69-20.56,3.67-41.1,5.59-61.64
				c1.73-18.55,3.56-37.09,5.35-55.63c4.42-1.3,8.27,1.56,12.59,1.62c24.53,0.34,49.03,0.35,73.49-1.92
				C1292.07,563.73,1294.09,561.07,1296.3,563.51z"/>
			<path class="st4" d="M1296.3,563.51c-2.21-2.43-4.23,0.23-6.27,0.42c-24.46,2.26-48.97,2.26-73.49,1.92
				c-4.32-0.06-8.17-2.92-12.59-1.62c-2.37-0.37-2-2.28-2.16-3.87c-1.31-12.55-2.58-25.11-3.91-37.66
				c-1.72-16.25-3.49-32.5-5.27-49.03c-1.6,1.19-1.43,2.61-1.64,3.86c-4.33,26.19-5.27,52.57-4.39,79.05c0.06,1.75,0.7,3.7-1.08,5.1
				c-6.41,1.21-12.78,2.61-19.4,1.25c-3.03-0.62-5.85-2.25-9.07-1.99c0.29-8.76-2.8-17.18-2.62-25.93
				c-0.23-18.34,1-36.61,2.48-54.87c9.67-0.87,18.79-3.57,27.39-8.09c0.92-0.48,2.38-0.28,1.77-2.21c-1.38-4.34-2.16-8.9-3.85-13.09
				c-4.47-11.08-9.76-21.8-15.32-32.38c3.48-14.32,7.77-28.41,12.37-42.41c1.2-3.67,3.02-5.38,7.11-6.19
				c9.11-1.82,18.47-1.34,27.5-3.52c5.54,7.81,13.6,13.13,19.95,20.15c1.51,1.67,2.48,1.12,3.04-0.84c0.36-1.26,0.75-2.51,1.12-3.76
				c2.37,1.93,2.91,4.4,2.93,7.41c0.08,11.3,0.34,22.6,0.94,33.9c0.86,16.27,0.99,32.59,1.36,48.88c0.06,2.57,0.25,5.12,2.04,7.02
				c5.33,5.63,10.77,11.14,16.22,16.65c1.7,1.72,2.69,1.53,3.73-0.97c2.33-5.61,5.03-11.07,7.69-16.54c1.06-2.18,1.1-3.99,0.37-6.48
				c-3.04-10.29-5.55-20.74-8.24-31.13c-3.93-15.2-8.08-30.34-11.59-45.64c-0.94-4.08-4.49-8.53-0.44-12.94
				c1.56,1.07,0.05,4.27,2.45,4.3c1.94,0.03,2.39-2.5,3.47-3.91c2.09-2.74,4.03-5.6,6.03-8.41c5.09,1.88,10.13,3.97,15.3,5.58
				c3.29,1.03,4.84,2.77,5.05,6.24c0.18,3.09,1.71,6.02,1.5,9.22c-0.25,0.42-0.78,0.88-0.72,1.24c2.31,14.05,3.67,28.2,5.16,42.36
				c2.07,19.61,3.36,39.27,4.47,58.93c1.01,17.92,0.84,35.9,1.2,53.85C1296.67,559.4,1296.48,561.45,1296.3,563.51z M1201.78,425.07
				c-2.71,12.61-5.41,25.21-8.12,37.82C1201.64,451.4,1203.46,438.55,1201.78,425.07z"/>
			<path class="st5" d="M1181.85,861.87c0.36,1.34,0.72,2.68,1.08,4.03c-0.64,1.7-1.34,3.37-1.91,5.09
				c-1.1,3.32-0.68,6.12,2.57,8.17c4.14,2.61,10.8,2.38,14.54-0.5c3.32-2.57,1.53-5.23,0.42-7.96c-0.37-0.91-0.55-1.9-0.82-2.85
				c5.52-1.35,3.58-6.65,5.32-10.01c2.15-0.03,4.39,0.3,6.45-0.15c16.17-3.56,32.65-1.65,48.94-2.37
				c10.42-0.46,21.14,0.11,31.71,0.62c1.25,2.18,0.27,5.03,2.11,7.04c-0.36,3.14,0.22,5.18,4.09,5.76c12.2,1.83,24.42,2.66,36.73,2
				c1.13-0.06,2.72,0.57,3.43-1.59c-9.08-1.49-17.92-3.63-26.61-6.33c0-1.65-0.01-3.3-0.01-4.96c11.31,1.61,22.61,3.25,33.45,7.04
				c1.41,0.49,2.79,1.1,4.09,1.84c4.63,2.63,4.6,6.23,0.3,9.22c-4.5,3.13-9.7,4.4-14.79,5.62c-13.54,3.25-27.42,4.17-41.27,5.4
				c-19.28,1.71-38.57,0.74-57.85,0.77c-13.05,0.02-26.12-0.89-38.96-3.7c-3.28-0.72-6.1,0.84-9.15,1.58
				c-12.07,2.92-24.41,4.14-36.75,5.27c-17.87,1.63-35.78,2.02-53.72,2.05c-3.87,0.01-7.59-0.78-11.36-1.19
				c-12.66-1.36-24.68,1.94-36.77,4.58c-10.37,2.26-20.87,3.41-31.38,4.45c-22.18,2.2-44.46,2.7-66.7,1.94
				c-23.13-0.79-46.33-1.46-69.08-6.64c-8.19-1.87-16.37-3.05-23.88-7.66c-4.32-2.65-10.06,0.25-15.15,0.68
				c-8.06,0.69-16.07,2.38-24.13,2.63c-16.44,0.51-32.91,2.23-49.33,1c-16.14-1.21-32.36-1.47-48.39-4.48
				c-7.78-1.46-15.63-2.03-23.15-5.01c-2.45-0.97-5.82,0.56-8.77,0.59c-11.66,0.09-23.35,0.61-34.97-0.1
				c-20.28-1.24-40.7-1.73-60.54-6.91c-3.05-0.8-5.96-1.74-8.41-4.05c-2.88-2.71-2.16-4.36,0.9-6c6.41-3.42,13.55-4.72,20.5-5.66
				c14.4-1.94,28.95-2.85,43.43-4.19c0.43,3.97-3.06,6.37-4.37,10.17c2.55,0,4.68,0,6.8,0c1.4,0,3.04,0.06,2.28,2.06
				c-1.1,2.91,0.45,2.95,2.55,2.88c2.32-0.08,4.67-0.22,6.97,0.04c3.01,0.33,4.28-0.91,4.39-3.8c0.14-3.81,0.34-7.62,0.52-11.43
				c7.46,0.05,14.95-0.29,22.37,0.24c14.77,1.04,29.59,1.59,44.27,3.78c0.21,2.26,0.39,4.53-0.26,6.76
				c-9.58,2.39-19.16,4.79-28.74,7.18c14.61,1.99,28.96,1.21,43.28-1.07c3.75-0.6,5.25-2.12,4.54-5.8c1.86-2.38,0.88-5.53,2.19-8.06
				c14.97-0.01,29.94-0.02,44.9-0.02c0.96,3.31-1.06,7.29,2.27,10.06c-1.15,3.33-3.8,5.68-5.84,8.7c4.52,3.03,9.36,4.37,14.61,4.02
				c9.67-0.64,10.87-2.31,8.72-11.69c2.59-3.83,1.74-8.47,2.96-12.62c0.32,2.15,1.01,3.8,3.74,3.56c3.99-0.35,7.9,0.45,11.85,0.94
				c12,1.5,23.92,3.25,35.09,8.2c2.12,0.94,4.17,1.24,6.2,0.05c2.29-1.35,4.78-1.22,7.26-1.23c0.41,0.34,0.81,0.69,1.22,1.03
				c-0.68,1.7-1.47,3.35-2.01,5.09c-2.58,8.41,0.95,13.03,9.88,13.05c2.38,0.01,4.64-0.44,6.73-1.56c3.48-1.88,5.6-4.18,2.94-8.35
				c-0.96-1.5-1.59-3.31-1.47-5.22c4.84-0.07,3.89-4.35,5.13-7.04c1.16,0,2.35,0.13,3.49-0.02c17.11-2.22,34.36-2.31,51.55-2.73
				c14.53-0.36,29.11,1.11,43.67,1.77c0.48,1.03,0.97,2.07,1.45,3.1c-0.64,4.03,0.79,6.03,5.15,6.35c6.78,0.5,13.5,1.88,20.29,2.24
				c8.04,0.42,16.16,0.95,24.81-0.69c-2.22-1.56-4.07-1.63-5.84-1.96c-7.51-1.41-14.93-3.21-22.25-5.42
				c-1.76-0.53-3.76-0.93-2.67-3.59c1.82-0.09,3.7,0.07,5.46-0.31c18.69-4.02,37.6-5.64,56.69-5.68c0.45,1.47,1.96,1.83,2.92,2.77
				c-0.55,0.3-1.53,0.56-1.57,0.92c-0.61,5.14-0.3,10.25,0.65,15.34c0.28,1.5,1.27,1.74,2.54,1.73c3.32-0.02,6.63,0.02,9.95-0.02
				c1.13-0.01,2.66,0.05,1.93-1.82c-1.46-3.74,1.12-3.25,3.27-3.26c1.92-0.01,3.85,0,6.52,0c-3.49-5.26-6.81-9.82-7.48-15.57
				c1.94-0.91,3.13,1.65,5.01,1.06c10.49-3.3,20.98,0.17,31.47,0.17C1157.99,861.21,1169.83,865.95,1181.85,861.87z"/>
			<path class="st6" d="M868.75,351.93c-2.98,20.72,1.36,40.6,6.84,60.37c0.44,1.59,0.79,3.2,1.18,4.81
				c-1.24,1.45-1.44,3.29-1.86,5.04c-2.72,11.15-6.27,22.02-11.79,32.11c-2.06,3.78-2.9,7.66-3.2,11.8
				c-0.97,13.53-2.18,27.04-4.03,40.49c-2.09,15.21-3.71,30.5-7.53,45.42c-2.89-2.13-6.03-0.72-9.05-0.56
				c-15.72,0.81-31.41,1.74-47.19,1.04c-14.74-0.65-29.4-2.05-44.07-3.35c-0.7-4.56-0.28-9.13-0.28-13.72
				c0.02-23.15,0.44-46.28,2.08-69.37c7.66-1.01,14.92-3.48,22.18-5.97c1.74,8.68,6.5,16.11,10.14,23.98
				c1.28,2.76,2.83,0.05,3.63-0.9c5.2-6.17,11.11-11.65,16.8-17.33c4.21,3.2,8.24,6.65,12.9,9.25c9.51,5.3,19.53,9,30.45,9.92
				c1.9,0.16,3.79,0.12,4.45-2.16c1.14-3.96,3.25-7.65,3.48-11.87c0.08-0.12,0.16-0.24,0.24-0.37c-0.07,0.13-0.14,0.27-0.21,0.4
				c-2.56,2.5-4.15,6.24-9.09,5c-7.51-1.88-15.21-2.86-22.72-4.94c-6.69-1.85-12.83-5.14-19.57-6.76
				c-6.26-3.52-12.52-7.05-18.77-10.57c-3.39-2.3-7.03-4.3-10.1-6.97c-5.23-4.56-11.87-7.75-14.85-14.6
				c-0.1-8.32,4.77-13.34,11.53-17.11c-4.9-4.4-10.8-2.83-16.35-3.13c0.28-0.78,0.74-1.54,0.8-2.33
				c0.83-11.31,2.39-22.52,3.87-33.76c0.64-4.85,2.87-9.73,1.27-14.82c6.97-4.42,14.79-7.1,22.1-10.83
				c0.97,6.87,6.52,10.96,9.71,17.23c1.38-1.96,1.47-3.86,3.07-4.6c0.58,1.09,2.23,1.51,1.74,3.28c-1.59,5.72-3.08,11.47-4.59,17.21
				c-2.95,11.19-5.94,22.37-8.8,33.58c-0.44,1.71-0.81,3.8,1.52,4.7c5.55,2.14,11.1,4.29,16.7,6.27c2.63,0.93,4.3,0.5,4.35-3.07
				c0.13-8.48,0.74-16.94,1.03-25.42c0.37-10.64-0.14-21.31,0.88-31.94c0.23-2.38,0.3-4.71,3.12-5.57c0.24,0.79,0.6,1.57,0.7,2.38
				c0.58,4.79,2.35,3.55,4.69,1.08c3.08-3.26,6.51-6.19,9.45-9.55c3.57-4.07,8.55-6.79,11.23-11.69c9.7,0.17,19.03,1.97,27.8,6.27
				C865.96,350.93,867.38,351.39,868.75,351.93z M827.74,439.97c3.6-0.42,7.76,1.28,10.51-2.59c3.99-5.62,2.9-11.98,2.21-18.13
				c-0.2-1.75-1.94-3.17-4.35-3.35c-10.93-0.8-19.53,3.9-27.25,10.98c-2.44,2.24-2.24,4.21,0.16,6.19
				C814.44,437.55,820.34,440.78,827.74,439.97z M837.99,412.95c3.71-11.6,7.43-23.19,11.14-34.79
				C840.08,388.1,836.09,399.67,837.99,412.95z"/>
			<path class="st7" d="M1041.85,421.8c-1.87-6.32-4.89-12.31-5.24-19.04c-0.81-4.33-0.9-8.86,0.32-12.91
				c3.25-10.73,0.31-20.98-1.4-31.37c-1.16-7.06-2.3-14.13-3.53-21.18c-0.59-3.38-0.42-6.56,1.24-9.67c1.41-2.64,2.41-5.5,3.87-8.1
				c4.99-8.91,9.51-17.71,11.95-28.01c3.89-16.42,17.08-24.67,32.41-29.51c12.52-3.95,25.35-3.46,38.12-1.82
				c7.2,0.93,9.89,4.11,11.1,11.38c1.22,7.26,3.25,13.93,8.3,19.88c6.63,7.8,9.39,16.62,5.03,27.2
				c-4.74,11.53-8.91,23.29-14.85,34.29c-1.4,2.59-1.49,4.53,0.19,7.19c3.61,5.72,7.04,11.65,7.53,18.69
				c-2.01-0.56-1.82-3.48-4.06-3.79c0,0-0.09-0.07-0.09-0.07c0-0.6-0.3-0.89-0.9-0.87c-3.15-2.67-7.3-2.41-10.93-3.71
				c-2.64-2.9-5.27-5.8-7.91-8.69c-1.08-3.24,0.22-6.54-0.27-9.8c0.23-2.69,1.69-4.47,3.9-5.98c4.15-2.84,7.45-6.6,10.69-10.43
				c2.31-2.73,3.09-5.58,2.66-9.16c-1.18-9.75-2.23-19.52-2.98-29.31c-0.5-6.53-1.33-12.58-8.78-14.93
				c-15.21,18.48-18.3,20.45-43.11,27.14c-1.39,0.38-2.61,0.69-2.48,2.46c0.69,9.33-2.24,19.68,7.47,26.48
				c0.47,0.33,0.59,1.16,0.87,1.75c0.34,6.62,0.69,13.25,1.03,19.87c-3.3,3.55-4.87,8.38-8.6,11.61c-3.65,1.06-7.31,2.04-11.04,2.84
				c-9.69,2.09-15.6,8.15-17.64,17.94c-1.13,5.42-1.24,10.88-0.36,16.3c1.01,6.19,2.34,12.33,3.53,18.49
				C1044.78,426.54,1044.29,423.02,1041.85,421.8z"/>
			<path class="st7" d="M646.08,375.29c-5.36-1.56-10.06-4.3-14.27-7.93c-8.8-7.59-14.1-16.25-8.94-28.31
				c0.97-2.27,1.19-4.85,2.04-7.18c3.38-9.39,5.71-18.88,6.34-28.97c0.51-8.18,2.76-16.8,11.98-19.62
				c14.52-4.44,29.19-5.08,43.16,2.33c14.28,7.58,21.37,19.55,20.64,35.79c-0.16,3.49,0.45,6.41,2.24,9.38
				c3.28,5.44,5.08,11.51,6.94,17.56c0.91,2.95,0.42,4.91-1.77,7.04c-10.15,9.83-21.95,16.59-35.76,19.72c-0.8-0.22-1.63-0.41-2-1.3
				c0.33-5.95,0.66-11.9,0.99-17.86c0.28-0.94,0.26-2.34,0.89-2.76c7.51-4.93,6.42-12.8,7.28-20.13c0.58-4.91-1.25-6.95-5.98-8.06
				c-15.43-3.62-28.4-11.15-37.16-24.87c-0.2-0.31-0.81-0.37-0.94-0.42c-10.04,12.61-9.14,27.85-10.99,42.43
				c-0.44,3.49,0.7,6.02,2.67,8.66c3.82,5.13,9.23,8.56,13.56,13.13c0.05,1.38,0.11,2.75,0.16,4.13
				C646.39,370.42,648.16,373.14,646.08,375.29z"/>
			<path class="st8" d="M836.93,286.17c3.25,2.13,5.83,4.73,4.67,8.99c-1.17,4.28-2.93,8.2-8.17,8.89
				c-2.87,0.38-5.15,1.43-4.51,5.05c0.33,1.84-0.81,3.18-1.85,4.46c-1.77,2.17-2.47,4.64-2.33,7.39c-2.53-2.98-3.93-0.16-5.46,1.17
				c-8.08,7.05-16.22,13.48-27.49,5.98c-1.04-0.69-2.5-0.76-3.76-1.12c-3.13-3.86-7.83-6.04-10.75-10.13
				c-0.57-0.8-1.92-1.6-1.83-2.25c0.81-5.9-3.46-7.58-7.37-10.24c-4.95-3.37-4.89-7.4-1.21-15.25c6.93-0.07,6.93-0.07,6.39-6.86
				c-0.03-0.33-0.02-0.67-0.07-0.99c-1.4-9.14-0.68-17.59,6.47-24.63c1.72-1.7,2.76-2.62,5.26-2.19c12.3,2.11,23.42,6.89,33.9,13.63
				c6.79,4.37,11.38,9.39,9.89,18.05c-0.09,0.55,0.22,1.16,0.39,1.99C831.65,286.39,834.25,286.12,836.93,286.17z"/>
			<path class="st8" d="M933.8,299.93c0.29-3.87-1.15-7.16-2.41-10.8c-1.85-5.36-4.52-9.12-8.6-13.03
				c-5.71-5.47-3.59-11.65,3.76-14.3c0.95-0.34,1.15-1.09,1.44-1.85c1.13,0.43,0.22,2.36,2.02,2.51c1.83-9.3,3.77-18.57,5.42-27.89
				c0.56-3.15,1.07-4.28,4.53-2.46c11.88,6.24,24.71,8.82,38.06,8.41c3.22-0.1,4.27,1.18,5.38,3.74c2.54,5.9,2.72,12.28,4.15,18.4
				c7.01,7.63,7,9.81-0.15,18.22c-0.77,0.9-1.67,1.83-1.46,3.03c1.28,7.35-3.73,11.19-8.54,14.87c-2.55,1.95-4.57,3.98-5.61,6.98
				c-1.58-3.6-3.76-0.93-5.07-0.09c-6.37,4.08-12.29,3.65-18.5-0.47c-4.46-2.96-8.55-6.4-12.96-9.74
				C934.56,297.19,935.43,298.99,933.8,299.93z"/>
			<path class="st8" d="M1274.57,319.89c3.85,1.01,6.77,2.99,6.79,7.38c0.02,4.53-2.81,7.24-6.57,9.15
				c-1.29,0.66-3.05,0.74-3.19,2.69c-0.53,7.34-6.1,10.95-11.06,15.03c-0.63,0.52-1.14,1.2-1.7,1.81c-2.1,0.42-4.01,1.25-5.94,2.21
				c-4.27,2.12-8.3,2.36-13.06,0.08c-5.59-2.69-9.63-7.26-14.87-10.22c-1.56-3.85-5.1-6.89-4.42-11.7c0.2-1.39-1.61-1.26-2.73-1.41
				c-4.44-0.59-6.92-3.61-8.52-7.35c-2.39-5.58,1.57-9.49,9.51-9.6c0.43,0.51,0.87,1.46,1.28,1.44c1.49-0.06,0.88-1.41,1.05-2.25
				c0.61-2.98-1.25-6.46,3.09-8.54c12.86-6.16,25.54-12.71,38.24-19.22c1.74-0.89,2.59-1.03,4.03,0.7
				c4.9,5.91,8.51,12.01,6.47,20.18c-0.63,2.53-0.28,5.29-0.42,7.95C1272.47,319.75,1273,320.43,1274.57,319.89z"/>
			<path class="st9" d="M758.8,432.11c2.98,6.85,9.62,10.05,14.85,14.6c3.07,2.67,6.71,4.67,10.1,6.97
				c-4.41,1.18-7.99,3.91-11.73,6.34c-7.26,2.5-14.52,4.96-22.18,5.97c-10.65,0.88-21.28,1.17-31.85-0.83
				c-1.62-1.61-0.81-3.59-0.85-5.45c2.8-4.62,3.24-10,4.63-15.04c6.77-24.47,16.6-47.61,29.68-69.36
				c2.86-4.76,3.26-10.98,8.47-14.35c1.59,5.09-0.63,9.97-1.27,14.82c-1.48,11.24-3.04,22.45-3.87,33.76
				c-0.06,0.79-0.52,1.55-0.8,2.33c-5.16,2.1-9.15,5.55-12.09,10.27c-1.2,1.93-1.67,4.26,0.75,4.88
				C748.13,428.44,752.91,432.07,758.8,432.11z"/>
			<path class="st7" d="M836.93,286.17c-2.68-0.05-5.28,0.22-7.83,1.94c-0.17-0.82-0.48-1.44-0.39-1.99
				c1.49-8.66-3.1-13.68-9.89-18.05c-10.48-6.74-21.59-11.52-33.9-13.63c-2.5-0.43-3.54,0.49-5.26,2.19
				c-7.16,7.04-7.87,15.49-6.47,24.63c0.05,0.33,0.05,0.66,0.07,0.99c0.53,6.79,0.53,6.79-6.39,6.86c-1.08-1.47-2.18-2.93-3.25-4.4
				c-2.19-3-2.9-5.83-0.92-9.57c2.57-4.83,3.68-10.28,4.47-15.75c0.35-2.39,0.62-4.6-1.02-6.63c-1.21-1.49-0.76-3.07-0.23-4.69
				c2.62-8.05,6.93-15.04,12.88-21.08c1.78-1.81,3.23-2.17,5.59-0.99c11.16,5.58,22.78,10.05,34.66,13.85
				c2.01,0.64,3.67,1.56,4.86,3.23c4.04,5.69,10.83,9.15,11.57,17.61c0.4,4.54,4.16,8.96,6.93,13.08c2.3,3.42,2.18,5.8-1.19,8.22
				C839.61,283.15,838.34,284.77,836.93,286.17z"/>
			<path class="st7" d="M987.56,262.66c-1.44-6.12-1.61-12.5-4.15-18.4c-1.11-2.57-2.16-3.84-5.38-3.74
				c-13.35,0.42-26.18-2.17-38.06-8.41c-3.46-1.82-3.97-0.68-4.53,2.46c-1.65,9.32-3.59,18.59-5.42,27.89
				c-1.8-0.15-0.89-2.08-2.02-2.51c-3.94-13.35-4.55-26.8-1.3-40.4c0.53-2.23,1.47-3.98,3.13-5.5c8.77-8.01,18.92-11.49,30.75-9.36
				c7.75,1.4,14.87,4.73,21.89,8.02c7.22,3.38,11.29,9.05,11.07,17.8C993.25,241.62,991.68,252.34,987.56,262.66z"/>
			<path class="st9" d="M1132.84,375.05c2.24,0.31,2.05,3.23,4.06,3.79c2.16,4.97,3.41,10.43,7.69,14.26
				c3.35,5.62,6.94,11.06,11.89,15.45c2.69,5.77,6.46,10.83,10.36,15.8c5.57,10.58,10.85,21.3,15.32,32.38
				c1.69,4.2,2.48,8.76,3.85,13.09c0.61,1.93-0.85,1.73-1.77,2.21c-8.59,4.52-17.72,7.22-27.39,8.09c-2,0.07-4,0.14-6,0.2
				c-1.13-0.43-2.19-0.57-2.97,0.64l-0.03,0.03c-5.33,0.04-10.58-0.54-15.76-1.83c-1.86-0.46-3.51-0.27-5.11,1.08
				c-12.03,10.2-25.85,16.64-41.26,19.91c-8.91,1.89-8.87,2.11-10.55-6.7c-0.06-0.33-0.16-0.65-0.21-0.97
				c-0.33-2.06,0.09-3.2,2.56-3.82c3.97-0.99,7.98-0.28,11.9-0.91c16.86-2.74,33.02-7.77,47.67-16.65
				c6.62-4.01,14.41-7.05,17.82-15.03c4.11-0.48,7.64-2.58,11.43-3.96c2.69-0.98,2.62-2.37,1.82-4.55c-1.86-5.08-6-7.57-10.57-9.63
				c0.05-4.76,1.3-9.59-1.34-14.14c-7.69-13.22-13.96-27.17-20.87-40.79C1134.14,380.51,1132.82,377.98,1132.84,375.05z"/>
			<path class="st10" d="M641,717.01c5.95,1.36,11.96,1.34,17.99,0.73c0,0-0.22,0.38-0.22,0.38c-2.72,1.76-5.89,0.02-8.8,1.14
				c0.48,1.35,1,2.63,1,4.13c-0.04,15.77-0.21,31.53,0.92,47.28c0.57,7.93,0.62,15.92,0.74,23.83c0.32,20.07,1.67,40.08,2.23,60.12
				c-2.1-0.21-2.56-2.3-3.89-3.39c-2.22-10.88-4.44-21.76-6.65-32.64c-4.46-21.94-8.98-43.86-13.33-65.82
				c-2.54-12.85-4.8-25.75-7.18-38.63c0.37-0.05,0.75-0.11,1.12-0.16c0.25,0.12,0.51,0.14,0.78,0.06
				C630.65,715.86,635.34,718.92,641,717.01z"/>
			<path class="st1" d="M608.94,552.11c-1.05,6.98-0.74,13.89,1.65,20.55c1.35,3.75-0.88,6.7-2.54,9.11
				c-3.78,5.48-2.21,11.12-1.29,16.57c0.34,2.04,1.34,3.87,0.54,6.01c-0.17,0.46-0.45,1.08-0.28,1.44
				c2.66,5.53-0.6,11.58,1.64,17.26c0.92,2.34,0.39,5.26,0.46,7.92c0.15,5.89,1.49,11.64,2,17.5c0.49,5.65,0.18,11.66,5.18,16.37
				c2.18,2.06,0.44,6.01-0.36,9.06c-0.9,0-1.79,0-2.69,0c-6.31-36.71-11.3-73.52-8.18-110.93c0.12-1.49,0.76-3.05,0.48-4.43
				c-1.14-5.5-1.63-11.04-1.6-16.63c1.35-1.93,1.93-3.99,2.09-6.43c0.5-7.59,1.33-15.16,2.13-22.73
				c1.63-15.31,1.03-30.55-1.16-45.76c-1.09-7.86-4.18-15.35-4.19-23.43c-0.01-3.22,0.36-6.14,1.83-9.1
				c6.65-13.37,13.55-26.65,19.45-40.34c3.09-7.16,7.93-10,15.07-10.4c-0.02,0.77-0.05,1.55-0.07,2.32
				c-2.68,4.65-5.94,9.06-7.89,13.99c-3.49,8.79-8.34,16.97-11.21,26.02c-2.4,7.59-5.28,14.81-5.35,23.17
				c-0.12,14.95,2.74,29.66,2.35,44.61c-0.42,15.96,0.01,31.94,0.07,47.91c-1.54,3.3-3.63,6.07-6.98,7.8
				C609.31,549.92,607.73,550.56,608.94,552.11z"/>
			<path class="st11" d="M1296.85,557.34c-0.35-17.95-0.19-35.93-1.2-53.85c-1.11-19.66-2.4-39.31-4.47-58.93
				c-1.49-14.16-2.85-28.31-5.16-42.36c-0.06-0.36,0.47-0.83,0.72-1.24c4.56,20.11,8.97,40.26,13.72,60.33
				c7.2,30.44,15.91,60.48,25.43,90.27c0.45,1.41,1.18,2.78,0.86,4.35c-9.81-3.09-22.21,1.29-25.94,9.15
				C1297.91,563.3,1298.8,559.59,1296.85,557.34z"/>
			<path class="st7" d="M1274.57,319.89c-1.57,0.54-2.11-0.14-2.03-1.66c0.14-2.65-0.21-5.42,0.42-7.95
				c2.03-8.17-1.57-14.27-6.47-20.18c-1.43-1.73-2.29-1.59-4.03-0.7c-12.7,6.5-25.38,13.05-38.24,19.22
				c-4.34,2.08-2.48,5.56-3.09,8.54c-0.17,0.84,0.45,2.19-1.05,2.25c-0.41,0.02-0.85-0.94-1.28-1.44
				c-1.37-8.35-2.81-16.69-3.54-25.13c-0.2-2.31,0.1-4.08,1.8-5.82c3.26-3.31,6.12-7.03,9.44-10.27
				c16.29-15.91,42.28-10.22,50.88,11.84c3.06,7.86,0.92,16.78-1.12,25.08C1275.76,315.75,1275.14,317.81,1274.57,319.89z"/>
			<path class="st12" d="M607.02,466.98c2.19,15.21,2.79,30.45,1.16,45.76c-0.8,7.57-1.63,15.14-2.13,22.73
				c-0.16,2.44-0.74,4.5-2.09,6.43c-3.89,6.48-7.97,12.84-13.02,18.51c-1.44-6.23-9.21-10.29-16.69-8.73
				c11.93-26.97,22.31-54.53,31.77-82.45C606.27,468.45,606.68,467.72,607.02,466.98z"/>
			<path class="st8" d="M1300.81,565.07c3.72-7.87,16.12-12.24,25.94-9.15c0.51,5.92,2.31,11.64,2.16,17.7
				c-0.19,7.27-3.35,13.02-7.78,18.33c-1.97,2.36-4.69,2.92-7.12,1.24c-2.8-1.92-2.09-4.5-0.17-6.88c1.6-1.98,2.35-4.37,2.85-6.82
				c0.37-1.82-0.7-2.92-2.34-3.2c-1.84-0.31-1.47,1.38-1.71,2.39c-0.35,1.44-0.56,2.92-0.84,4.38c-0.4,2.07-1.05,3.95-3.7,3.79
				c-2.37-0.14-4.08-0.96-4.37-3.74c-0.5-4.76-1.16-9.51-1.85-14.25C1301.68,567.57,1301.17,566.33,1300.81,565.07z"/>
			<path class="st10" d="M933.8,299.93c1.63-0.94,0.76-2.74,1.46-4.47c4.41,3.34,8.51,6.78,12.96,9.74
				c6.2,4.12,12.13,4.55,18.5,0.47c1.31-0.84,3.48-3.52,5.07,0.09c-1.35,3.7-1.23,7.4,0.03,11.09c-4.12,1.4-5.83,5.38-8.74,8.06
				c-2.07,1.91-1.98,3.81-1.2,6.06c-3.45,1.79-6.77,0.86-10.07-0.48c0.57-2.67-0.92-4.28-2.86-5.72c-4.2-3.14-8.29-6.45-12.6-9.42
				c-1.93-1.33-3.35-3.83-6.27-3.39C932.87,308.43,932.18,303.83,933.8,299.93z"/>
			<path class="st10" d="M788.03,326.99c1.26,0.36,2.72,0.42,3.76,1.12c11.27,7.5,19.41,1.07,27.49-5.98
				c1.52-1.33,2.92-4.16,5.46-1.17c0.8,4.31,1.6,8.61,2.4,12.92c-0.75,1.99-2.52,2.86-4.11,4.02c-4.74,3.47-9.35,7.11-14.03,10.67
				c-1.65,1.25-1.93,2.73-0.87,4.5c-3.13,0-6.18,1.61-9.38,0.56c0.13-7.16-5.71-10.21-9.91-14.38c-0.03-3.03-0.07-6.07-0.1-9.1
				c0.18-0.84,0.11-1.6-0.64-2.16C788,327.65,787.97,327.33,788.03,326.99z"/>
			<path class="st11" d="M639.11,386.02c0.02-0.77,0.05-1.54,0.07-2.32c0,0,0.12,0.1,0.12,0.1c0.65,0.01,1.2-0.14,1.41-0.86
				c1.53-2.73,4.49-4.46,5.36-7.65c2.09-2.15,0.31-4.87,1.08-7.22c1.24,2.16,0.61,4.54,0.77,6.82c0.43,6.14,4.78,9.41,10.62,8.01
				c6.76-1.62,12.59-5.05,18.12-9.1c0.38,0.88,1.2,1.08,2,1.3c0.3,3.46,3.58,5.37,4.46,8.53c-2.48,4.57-6.77,7.51-10.17,11.24
				c-1.79,0.74-3.53,1.7-5.4,2.15c-3.64,0.89-7.49,2.68-10.65-1.17c-0.35-0.9-0.72-1.79-1.05-2.7c-1.47-4.01-3.31-4.77-6.15-0.98
				c-1.22,1.64-2.42,3.5-4.61,4.16C641.21,393.99,640.03,390.08,639.11,386.02z"/>
			<path class="st10" d="M1224.98,348.02c5.24,2.96,9.28,7.54,14.87,10.22c4.76,2.29,8.79,2.05,13.06-0.08
				c1.93-0.96,3.84-1.79,5.94-2.21c-0.34,3.64-0.68,7.29-1.02,10.93c-2.28,2.53-4.45,5.18-6.89,7.54c-1.76,1.7-2.35,3.39-1.27,5.6
				c-3.03-0.06-6.06-0.13-9.08-0.19c0.78-2.29-0.48-3.52-2.15-4.87c-5.21-4.22-11.02-7.68-15.75-12.5
				C1223.44,357.65,1224.21,352.83,1224.98,348.02z"/>
			<path class="st11" d="M930.08,311.96c2.92-0.44,4.34,2.06,6.27,3.39c4.32,2.97,8.4,6.28,12.6,9.42c1.93,1.44,3.42,3.05,2.85,5.72
				c-1.03,2.82-2.05,5.64-3.07,8.46c-0.86,0.75-0.76,1.77-0.84,2.76c-0.13,1.51-0.36,3.24-1.89,3.75c-1.46,0.48-2.21-1.2-3.13-2.07
				c-2.42-2.29-4.62-4.82-7.13-7c-4.36-3.79-7.44-9-12.87-11.6c-0.61-0.85-2-1.11-1.92-2.5C924,318.85,927.04,315.41,930.08,311.96z
				"/>
			<path class="st9" d="M808.12,353.06c-1.06-1.76-0.77-3.24,0.87-4.5c4.67-3.56,9.29-7.2,14.03-10.67
				c1.59-1.16,3.36-2.04,4.11-4.02c3.24,3.38,6.47,6.75,9.71,10.13c-2.69,4.9-7.66,7.62-11.23,11.69c-2.95,3.36-6.38,6.3-9.45,9.55
				c-2.34,2.48-4.11,3.72-4.69-1.08c-0.1-0.81-0.46-1.59-0.7-2.38C810.85,358.59,808.47,356.14,808.12,353.06z"/>
			<path class="st11" d="M1222.68,362.46c4.73,4.81,10.54,8.28,15.75,12.5c1.68,1.36,2.93,2.58,2.16,4.87
				c-1.7,2.38-1.4,5.42-2.65,7.95c-0.37,1.25-0.76,2.5-1.12,3.76c-0.56,1.96-1.53,2.52-3.04,0.84c-6.34-7.02-14.4-12.34-19.95-20.15
				C1216.54,368.76,1218.92,364.98,1222.68,362.46z"/>
			<path class="st8" d="M574.24,551.67c7.48-1.56,15.25,2.5,16.69,8.73c-1.52,4.18-3.75,8.13-4.04,12.69
				c-0.09,1.4-0.24,2.74-2.11,2.73c-1.72-0.01-2.07-1.42-2.55-2.64c-0.61-1.52,0.31-3.36-1.14-4.98c-2.15,1.87-0.9,4.28-1.12,6.36
				c-0.21,1.91,0.58,4.5-1.95,5.07c-2.96,0.67-3.01-2.36-4.03-4.11c-3.62-6.22-3.66-12.52-0.8-19.03
				C573.84,555.01,573.91,553.28,574.24,551.67z"/>
			<path class="st12" d="M650.98,851.22c1.33,1.09,1.78,3.19,3.89,3.39c2.18-0.17,4.72-0.95,4.19,3.27
				c2.51-3.58,2.51-3.58,7.65-2.49c0.17,0.48,0.34,0.96,0.51,1.44c-0.18,3.81-0.38,7.62-0.52,11.43c-0.11,2.88-1.38,4.13-4.39,3.8
				c-2.3-0.25-4.64-0.12-6.97-0.04c-2.1,0.08-3.65,0.03-2.55-2.88c0.75-1.99-0.89-2.06-2.28-2.06c-2.13,0-4.25,0-6.8,0
				c1.31-3.8,4.8-6.19,4.37-10.17C650.69,855.86,649.61,852.91,650.98,851.22z"/>
			<path class="st11" d="M961.88,330.97c-0.78-2.25-0.88-4.16,1.2-6.06c2.92-2.68,4.62-6.66,8.74-8.06
				c2.41,4.66,5.85,8.8,7.14,14.03c-0.11,0.38-0.21,0.76-0.32,1.15c-3.8,1.1-4.19,5.15-6.51,7.53c-1.53,1.57-1.86,5.02-4.27,4.73
				c-1.99-0.24-1.33-3.69-2.64-5.34C964.1,336.29,962.99,333.63,961.88,330.97z"/>
			<path class="st9" d="M788.83,339.24c4.2,4.18,10.04,7.22,9.91,14.39c-2.94,2.34-3.76,5.6-3.95,9.13c-1.6,0.74-1.68,2.64-3.07,4.6
				c-3.19-6.27-8.74-10.36-9.71-17.23C784.3,346.5,786.57,342.87,788.83,339.24z"/>
			<path class="st11" d="M1249.67,380.02c-1.08-2.21-0.49-3.89,1.27-5.6c2.44-2.36,4.61-5.01,6.89-7.54
				c2.93,4.04,5.9,8.05,7.06,13.04c-2,2.81-3.94,5.67-6.03,8.41c-1.07,1.41-1.52,3.93-3.47,3.91c-2.4-0.03-0.89-3.23-2.45-4.3
				C1251.86,385.3,1250.76,382.66,1249.67,380.02z"/>
			<path class="st7" d="M1156.49,408.54c-4.95-4.39-8.55-9.83-11.89-15.45C1151.8,395.76,1155.58,401.04,1156.49,408.54z"/>
			<path class="st3" d="M613.26,673.89c0.9,0,1.79,0,2.69,0c-0.08,7.92,1.09,15.6,4.3,22.89c0.79,1.81,1.48,3.52-1.35,4.12
				C616.26,692.06,614.69,682.99,613.26,673.89z"/>
			<path class="st3" d="M624.94,713.97c-0.37,0.05-0.75,0.11-1.12,0.16c-4.67-2.89-3.46-8.05-4.74-12.24
				C625.43,704.94,626.07,706.26,624.94,713.97z"/>
			<path class="st8" d="M788.1,327.98c0.75,0.56,0.82,1.33,0.64,2.16C788.09,329.55,787.91,328.82,788.1,327.98z"/>
			<path class="st1" d="M640.71,382.94c-0.21,0.71-0.76,0.87-1.41,0.86C639.77,383.51,640.24,383.23,640.71,382.94z"/>
			<path class="st13" d="M848.36,551.96c3.82-14.92,5.44-30.21,7.53-45.42c1.85-13.45,3.05-26.96,4.03-40.49
				c0.3-4.15,1.14-8.03,3.2-11.8c5.52-10.09,9.07-20.96,11.79-32.11c0.43-1.75,0.62-3.59,1.86-5.04
				c5.29,15.44,11.97,30.23,21.06,43.84c0.09,1.65,0.17,3.3,0.26,4.95c0.7,14.63,1.28,29.26,2.12,43.88
				c1.08,18.95,2.34,37.89,3.58,56.83c0.14,2.08-0.86,4.65,2.64,5.57c1.35,0.35,0.55,2.73,0.42,4.17
				c-1.75,19.23-3.64,38.45-5.31,57.69c-1.99,22.89-3.9,45.78-5.67,68.69c-3.17,41.01-5.47,82.08-7.57,123.16
				c-0.75,14.64-1.11,29.29-1.64,43.94c-2.49,0.01-4.97-0.12-7.26,1.23c-2.02,1.19-4.08,0.89-6.2-0.05
				c-11.17-4.96-23.1-6.71-35.09-8.2c-3.95-0.49-7.86-1.29-11.85-0.94c-2.73,0.24-3.42-1.4-3.74-3.55
				c1.11-10.09,2.24-20.17,3.31-30.26c3.32-31.27,6.56-62.55,9.43-93.86c3.31-36.13,6.21-72.29,8.64-108.48
				C845.53,601.14,846.88,576.55,848.36,551.96z"/>
			<path class="st13" d="M1041.85,421.8c2.45,1.23,2.94,4.74,6.06,5.17c0,0-0.11-0.09-0.11-0.09c-0.36,0.99,0.44,0.82,0.95,0.95
				c-0.15,2.29,1.37,4.06,1.92,6.12c4.54,16.97,11.73,32.85,20.38,48.05c2.31,4.05,3.48,7.85,1.78,12.21
				c-1.97,5.06-2.77,10.5-5.56,15.33c-2.33,4.03-4.93,8.57,0.65,12.4c-0.49,1.23-0.95,2.48-1.46,3.7
				c-8.19,19.54-13.26,39.67-12.93,61.07c0.6,38.07,6.23,75.6,11.58,113.18c0.8,5.64,2.79,9.64,8.02,11.88
				c-0.04,10.81-0.98,21.71,0.07,32.41c1.68,17.11,3.67,34.22,6.66,51.18c2.24,12.7,4.27,25.43,6.49,38.14
				c1.53,8.78,4.28,17.38,4.53,26.39c-19.08,0.04-38,1.66-56.69,5.68c-1.76,0.38-3.64,0.22-5.46,0.31
				c-0.33-11.98-0.67-23.95-1-35.93c0.66-17.31-0.41-34.59-0.82-51.89c-1.03-43.42-3.04-86.81-5.35-130.18
				c-1.51-28.4-3.64-56.77-5.49-85.19c1.51-0.86,1.89,1.76,2.57,1.49c0-10.95,0.41-21.56-0.09-32.13
				c-1.03-21.77-2.53-43.52-3.87-65.27c-0.06-0.97-0.43-1.91-0.66-2.87c0.05-2.63,0.09-5.26,0.14-7.89
				c10.2,1.82,20.4,1.2,30.58-0.15c3.21-0.43,1.93-3.03,1.81-4.73C1045.83,441.23,1044.08,431.47,1041.85,421.8z"/>
			<path class="st13" d="M1007.78,865.85c-14.56-0.66-29.14-2.13-43.67-1.77c-17.18,0.42-34.44,0.51-51.55,2.73
				c-1.15,0.15-2.33,0.02-3.49,0.02c5.3-26.59,10.56-53.2,15.92-79.78c12.27-60.83,24.59-121.66,36.89-182.49
				c0.39-1.95,0.85-3.88,1.93-5.87c2.01,12.02,4.04,24.04,6.03,36.06c7.48,45.31,14.93,90.63,22.42,135.94
				c4.8,29.06,9.65,58.11,14.46,87.17c0.24,1.47,0.26,2.98,0.38,4.47c-0.21,0.94-0.24,1.83,0.62,2.51
				C1007.74,865.18,1007.76,865.51,1007.78,865.85z"/>
			<path class="st4" d="M990.79,450.1c0.45,13.07,2.51,25.99,3.59,38.97c0.76,9.08,1.99,18.12,2.56,27.22
				c0.3,4.78-0.06,8.33-5.85,8.6c-12.7,1.49-25.43,1.09-38.16,0.58c1.01-19.62-2.16-39.09-2.15-58.67c0-0.5-0.01-1-0.09-1.49
				c-1.75-10.64-1.11-11.5,10.1-13.53c4.64,4.75,9.4,9.39,13.86,14.3c2.11,2.32,3.17,1.95,4.13-0.67c2.14-5.89,4.24-11.8,6.36-17.7
				C987.01,448.51,988.9,449.3,990.79,450.1z"/>
			<path class="st6" d="M961.88,330.97c1.11,2.66,2.22,5.32,3.34,7.99c0.19,2.38-2.79,3.55-2.08,6.33
				c2.46,9.6,4.74,19.25,6.95,28.91c2.39,10.46,4.62,20.96,6.92,31.45c-7.51,2.96-14.87,6.34-22.75,8.27
				c-1.05-14.34-1.42-28.7-1.5-43.07c0-8.1,0.05-16.19-0.06-24.29c-0.02-1.29,0.9-3-0.99-3.88c-0.99-1.24-1.98-2.49-2.97-3.73
				c1.02-2.82,2.05-5.64,3.07-8.46C955.11,331.83,958.43,332.76,961.88,330.97z"/>
			<path class="st4" d="M948.74,338.95c0.99,1.24,1.98,2.49,2.97,3.73c0.39,9.38-0.5,18.82,1.05,28.17
				c0.07,14.37,0.45,28.73,1.5,43.07c-1.46,0.63-2.91,1.25-4.37,1.88c-0.5-4.5-4.9-5.79-7.23-8.78c-2.56-5.13-2.09-10.92-3.55-16.34
				c-2.13-7.88-3.33-15.97-5.53-23.9c-1.78-6.38-3.26-12.93-4.78-19.42c-1.41-6.02-3.34-11.91-5.15-17.83
				c-0.48-1.57-1.36-3.01-0.75-4.73c5.42,2.6,8.51,7.81,12.87,11.6c2.51,2.18,4.71,4.71,7.13,7c0.92,0.87,1.67,2.56,3.13,2.07
				c1.53-0.51,1.76-2.24,1.89-3.75C947.98,340.72,947.88,339.69,948.74,338.95z"/>
			<path class="st12" d="M952.93,525.48c12.73,0.51,25.46,0.91,38.16-0.58c6.64,0.01,6.49,0.02,6.85,6.63
				c0.27,4.91,0.98,9.8,1.62,15.85c-5.15-7.45-11.09-2.66-16.58-2.65c-7.66,0.02-15.32,0.31-22.97,0.14
				c-3.69-0.08-5.86,0.63-5.12,4.87c0.6,3.48-1.08,5.87-3.47,8.27c-8.4,8.44-18.54,12.47-30.39,12.58
				c4.37-1.86,8.97-3.13,13.25-5.26c4.95-2.45,9.38-5.56,13.65-9c3.67-2.95,5.07-6.72,4.95-11.38
				C952.72,538.47,952.9,531.97,952.93,525.48z"/>
			<path class="st4" d="M977.01,405.64c-2.3-10.48-4.53-20.98-6.92-31.45c-2.21-9.66-4.49-19.31-6.95-28.91
				c-0.71-2.78,2.27-3.95,2.08-6.33c1.31,1.65,0.65,5.1,2.64,5.34c2.41,0.29,2.74-3.17,4.27-4.73c2.32-2.38,2.72-6.43,6.51-7.53
				c0.28,10.39,1.91,20.67,2.81,31c0.86,9.8,1.88,19.69,3.4,29.46C985.89,399.14,984.43,404.12,977.01,405.64z"/>
			<path class="st8" d="M942.65,407.01c2.33,2.99,6.73,4.28,7.23,8.78c-4.6,9.91-23.41,15.61-32.48,9.65
				c-6.06-3.98-6.26-10.22-5.23-16.49c1.33-8.13,3.66-9.46,11.84-8.43C930.74,401.37,936.67,404.18,942.65,407.01z"/>
			<path class="st8" d="M1001.83,394.95c9.25,0.26,16.19,4.34,20.77,12.43c1.6,2.83,1.71,4.75-2.09,5.88
				c-4.45,1.32-8.77,3.1-13.09,4.85c-2.36,0.95-3.6,0.98-3.82-2.14c-0.55-7.89-4.67-13.32-12.45-16.28
				c1.52-2.25,4.07-2.41,5.76-3.77C998.55,395.59,1000.19,395.27,1001.83,394.95z"/>
			<path class="st12" d="M898.08,465.89c-0.09-1.65-0.17-3.3-0.26-4.95c4.79,7.28,5.07,7.09,14.03,5.6
				c10.48-1.74,20.68-4.34,30.65-7.95c1.45-0.53,2.87-0.74,4.38-0.66l0,0c-10.34,13.16-24.97,18.31-40.54,21.7
				c-2.6,0.56-2.4-1.64-3.07-2.97C901.47,473.11,901.46,468.69,898.08,465.89z"/>
			<path class="st12" d="M1027.73,829.95c0.33,11.98,0.67,23.95,1,35.93c-1.09,2.66,0.91,3.06,2.67,3.59
				c7.32,2.21,14.73,4.01,22.25,5.42c1.77,0.33,3.62,0.4,5.84,1.96c-8.65,1.64-16.77,1.12-24.81,0.69
				c-6.78-0.36-13.51-1.74-20.29-2.24c-4.35-0.32-5.79-2.32-5.15-6.35c4.33,0.77,8.42,2.18,13.14,1.24c4.08-0.81,4.66-2.6,4.61-6.03
				c-0.13-9.81-0.07-19.63-0.03-29.44C1026.96,833.12,1026.44,831.37,1027.73,829.95z"/>
			<path class="st6" d="M985.13,447.71c-2.12,5.9-4.22,11.81-6.36,17.7c-0.95,2.62-2.02,3-4.13,0.67
				c-4.46-4.91-9.22-9.55-13.86-14.3c5.3-3.72,10.95-6.83,16.82-9.57C980.11,444.05,982.62,445.88,985.13,447.71z"/>
			<path class="st12" d="M903.95,873.87c-0.11,1.91,0.52,3.71,1.47,5.22c2.66,4.17,0.54,6.48-2.94,8.35
				c-2.09,1.13-4.35,1.57-6.73,1.56c-8.93-0.02-12.46-4.63-9.88-13.05c0.53-1.74,1.33-3.4,2.01-5.09
				C892.75,874.43,898.38,873.99,903.95,873.87z"/>
			<path class="st12" d="M900.79,353.07c5.57,5.14,8.64,11.73,12.55,18.15c0.12-11.96,1.66-23.68,3.82-35.38
				c-1.06,20.28,0.08,40.54-0.91,60.98C911.1,382.24,905.95,367.66,900.79,353.07z"/>
			<path class="st12" d="M1001.83,394.95c-1.64,0.32-3.28,0.64-4.92,0.96c-1.46-11.69-4.85-22.97-7.37-34.43
				c-1.66-7.55-3.61-15.04-5.1-22.68c3.65,5.79,5.45,12.34,7.32,18.8c3.18,10.97,6.53,21.91,8.28,33.25
				C1000.28,392.27,1001.22,393.58,1001.83,394.95z"/>
			<path class="st12" d="M985.13,447.71c-2.51-1.83-5.02-3.66-7.53-5.5c6.35-5.65,13.85-9.73,20.54-15.31
				c-2.95,7.79-10.27,13.86-7.35,23.19C988.9,449.3,987.01,448.51,985.13,447.71z"/>
			<path class="st12" d="M1014.16,456.02c-0.05,2.63-0.09,5.26-0.14,7.89c-7.78-2.62-15.15-5.91-20.19-13.34
				C1000.61,452.39,1007.38,454.21,1014.16,456.02z"/>
			<path class="st5" d="M1007.72,864.84c-0.85-0.68-0.83-1.57-0.62-2.51C1007.79,863.05,1007.86,863.92,1007.72,864.84z"/>
			<path class="st12" d="M946.88,457.94c0.07-0.14,0.15-0.29,0.22-0.43C947.03,457.65,946.96,457.79,946.88,457.94L946.88,457.94z"
				/>
			<path class="st12" d="M999.88,424.95c-0.14,0.15-0.29,0.29-0.43,0.44c0.02-0.1,0-0.23,0.06-0.28c0.09-0.09,0.23-0.12,0.35-0.18
				L999.88,424.95z"/>
			<path class="st12" d="M1005.85,551.94c-0.14-0.15-0.29-0.3-0.43-0.45c0.16,0.14,0.31,0.27,0.47,0.41L1005.85,551.94z"/>
			<path class="st12" d="M999.86,424.93c0.15-0.14,0.29-0.28,0.44-0.41c-0.02,0.09-0.01,0.22-0.07,0.27
				c-0.09,0.08-0.23,0.11-0.35,0.16C999.88,424.95,999.86,424.93,999.86,424.93z"/>
			<path class="st12" d="M1005.89,551.9c0.14,0.15,0.27,0.3,0.41,0.46c-0.15-0.14-0.3-0.28-0.44-0.42
				C1005.85,551.94,1005.89,551.9,1005.89,551.9z"/>
			<path class="st13" d="M667.22,856.84c-0.17-0.48-0.34-0.96-0.51-1.44c9.39-47.98,20.18-95.79,18.25-145.2
				c1.05-0.75,2.09-1.49,3.14-2.24c3.67-1.09,3.63-4.3,4.08-7.2c0.97-6.27,1.9-12.54,2.85-18.82c1.47-6.27,2.23-12.63,2.7-19.04
				c0.03-0.33,0.05-0.67,0.08-1c0.26-1.32,1.08-2.64,0.07-3.99c1.05-7.49,2.66-14.96,2.94-22.48c0.19-5.22,1.75-10.28,1.2-15.57
				c-0.6-5.75,2.32-11.25,1.51-17.07c0.11-5.25,0.21-10.5,0.32-15.75c0.59-1.59,1.36-2.75,3.26-3.29c5.17-1.47,8.46-4.91,10.44-10
				c1.63-4.17,1.77-8.66,3.38-12.79c1.94-30.7,0.53-61.29-2.71-91.84c-0.14-1.32-0.16-2.65-0.24-3.97c10.57,2,21.2,1.71,31.85,0.83
				c-1.64,23.1-2.05,46.22-2.08,69.37c0,4.58-0.43,9.15,0.28,13.72c-2.29,33.21-4.88,66.41-6.81,99.64
				c-2.89,49.7-4.85,99.45-6.1,149.21c-0.53,20.97-0.86,41.95-1.28,62.92c-14.68-2.19-29.5-2.74-44.27-3.78
				C682.17,856.55,674.68,856.89,667.22,856.84z"/>
			<path class="st4" d="M656.9,395.85c3.16,3.85,7.01,2.06,10.65,1.17c1.86-0.45,3.6-1.42,5.4-2.15c-1,4.53-4.99,7.08-7.24,10.85
				c-6.92,11.62-13.11,23.44-17.04,36.5c-5.74,19.08-8.43,38.5-7.58,58.33c0.56,13.1,2.03,26.16,5.51,38.91
				c0.55,2.03,0.22,4.29,0.3,6.45c0,0,0.03-0.03,0.03-0.03c-2.81-0.38-6.62,3.46-8.23-1.96c0.13-1.17-0.77-1.65-1.44-2.38
				c-3.81-4.17-3.78-4.19-6.47,0.98c-0.84,1.62-1.8,3.12-3.84,3.38c0,0-0.01,0-0.01,0c-2.66-2.12-5.93-2.79-9.04-3.86
				c-0.27-0.12-0.55-0.23-0.83-0.33c-0.06-15.97-0.49-31.95-0.07-47.91c0.39-14.95-2.48-29.66-2.35-44.61
				c0.07-8.35,2.95-15.58,5.35-23.17c2.87-9.06,7.72-17.23,11.21-26.02c1.96-4.93,5.22-9.35,7.89-13.99
				c0.93,4.06,2.1,7.97,5.99,10.31c-0.06,1.65-1.68,2.08-2.61,2.69c-2.89,1.92-2.52,4.47-0.89,6.34c2.38,2.74,2.91-1.12,4.37-1.85
				c0.82-0.41,1.06-1.88,2.3-1.5c1.52,0.47,1.07,1.9,1.03,2.94c-0.09,2.46,0.56,3.63,3.41,3.34c3.03-0.32,2.49-1.92,2.5-4.07
				C655.22,401.41,652.85,397.89,656.9,395.85z"/>
			<path class="st8" d="M720.95,560.96c-1.61,4.13-1.75,8.62-3.38,12.79c-1.99,5.09-5.27,8.53-10.44,10
				c-1.9,0.54-2.67,1.7-3.26,3.29c-2.14,0.28-3.4-1.22-4.83-2.38c-0.66-0.64-1.32-1.29-1.98-1.93c0.97-0.88,1.84-1.92,2.92-2.61
				c3.61-2.3,3.79-2.78,2.07-7.33c-2.31,0.99-2.96,3.49-4.62,5.07c-0.74,0.7-1.52,1.43-2.6,1.01c-1.23-0.47-1-1.53-0.74-2.51
				c1.06-4.1,2.13-8.21,3.2-12.31c0.5-0.43,1.29-0.76,1.47-1.3c1.69-5.15,5.42-6.36,10.4-5.96
				C713.52,557.14,717.68,557.7,720.95,560.96z"/>
			<path class="st3" d="M665.94,558.91c-0.41,2.79,1.71,4.15,3.3,5.79c1.16,1.2,2.55,2.22,3.49,3.57c1.66,2.41,6.45,3.59,4.55,7.34
				c-2,3.95-5.31,7.31-10.81,5.67c0.05,1.84,2.49,2.96,0.71,4.71c-1.17,1.16-2.36,0.54-3.69,0.3c-3.98-0.73-6.07,1.24-5.35,5.34
				c0.35,2,0.75,3.81-1.35,4.64c-2.89,1.13-2.58-1.77-3.3-3.16c-1.99-3.8-3.86-7.66-5.77-11.51c-0.68-1.37-2.43-2.53-0.61-4.34
				c1.51-1.49,3.33-1.75,5.07-1.08c2.91,1.12,5.71,2.56,8.52,3.95c0.77,0.38,1.59,0.96,2.3,0.46c1.22-0.84,0.1-1.65-0.25-2.51
				c-1.27-3.08-2.42-6.15-0.26-9.4c0.76-1.15,0.79-2.72-0.22-3.75c-2.38-2.44-0.41-4.2,0.72-6.13
				C663.96,558.84,664.95,558.88,665.94,558.91z"/>
			<path class="st13" d="M696,526.32c-0.08-5.29-2.93-9.71-4.67-14.45c-6.57-17.86-7.93-36.09-4.4-54.76
				c5.71,23.83,8.75,48.08,11.93,72.31C697.91,528.39,696.95,527.36,696,526.32z"/>
			<path class="st12" d="M668.68,525.08c-4.38-0.83-8.6-1-11.58-4.54c-1.33-1.58-1.45-3.37-0.99-5.15c0.52-2,2.39-1.3,3.78-1.47
				c5.57-0.65,11.13-1.51,16.72-1.82c2.37-0.13,5.97-1.88,7.02,1.42c0.96,3-0.55,5.87-3.5,8.04
				C676.5,524.23,672.32,523.95,668.68,525.08z"/>
			<path class="st12" d="M665.94,558.91c-0.99-0.04-1.98-0.08-2.97-0.12c-2.33-1.24-4.9-1.54-7.45-2c-7.22-1.3-8.31-2.78-8.58-10.91
				c0,0-0.03,0.03-0.03,0.03c4.59,2.6,8.98,5.68,13.81,7.7c9.24,3.87,18.91,6.11,29.15,5.18c-0.24,1.54-1.29,0.92-1.94,1.14
				c-5.32-0.03-10.64-0.07-15.96-0.1C670.15,558.24,667.95,559.17,665.94,558.91z"/>
			<path class="st3" d="M671.97,559.83c5.32,0.03,10.64,0.07,15.96,0.1c0.87,3.78-1.5,6.38-3.62,8.81
				c-2.79,3.19-6.32,2.31-10.09-2.03C672.48,564.7,671.68,562.46,671.97,559.83z"/>
			<path class="st12" d="M696,526.32c0.95,1.03,1.91,2.07,2.86,3.1c0.38,8.11,1.71,16.18,0.76,25.4c-1.56-6.67-3.08-12.38-5.83-17.5
				C691.28,532.66,695.41,529.99,696,526.32z"/>
			<path class="st1" d="M697.29,564.04c-1.07,4.1-2.13,8.21-3.2,12.31c-0.26,0.99-0.49,2.04,0.74,2.51c1.09,0.42,1.87-0.31,2.6-1.01
				c1.67-1.58,2.32-4.08,4.62-5.07c1.72,4.55,1.54,5.03-2.07,7.33c-1.09,0.69-1.96,1.73-2.92,2.61c-1.85,1.44-3.93-1.31-5.95,0.64
				c2.21-4.75,2.57-9.05,0.89-13.86C691.62,568.39,694.05,564.53,697.29,564.04z"/>
			<path class="st1" d="M658.99,717.74c0.08-1.57-0.41-4.14,1.94-3.69c7.77,1.5,14.66-2.07,21.95-3.2c0,0,0.14,0.15,0.14,0.15
				c-7.56,4.15-15.78,6.08-24.26,7.13L658.99,717.74z"/>
			<path class="st1" d="M626.95,545.91c2.04-0.26,3-1.77,3.84-3.38c2.69-5.17,2.66-5.15,6.47-0.98c0.66,0.72,1.57,1.21,1.44,2.38
				c-3.02-0.25-4.9,1.14-5.76,3.99l0,0C630.95,547.24,627.95,549.55,626.95,545.91z"/>
			<path class="st3" d="M641,717.01c-5.66,1.91-10.35-1.15-15.28-2.97c3.4-3.25,6.97-2.97,10.61-0.46
				C637.92,714.67,639.44,715.86,641,717.01z"/>
			<path class="st12" d="M617.07,541.72c0.28,0.09,0.56,0.2,0.83,0.33c0.14,1.34-0.32,2.84,1,3.88c0.53,2.79-0.8,4.59-3.1,5.88
				c-0.29,0.02-0.58,0.05-0.86,0.07c-2,0.08-4,0.15-6,0.23c-1.21-1.55,0.37-2.19,1.15-2.59
				C613.45,547.79,615.54,545.03,617.07,541.72z"/>
			<path class="st3" d="M697.74,662.9c-0.47,6.41-1.24,12.77-2.7,19.04c-1.31-2.77-2.52-5.44-0.55-8.54c0.98-1.53,1.1-4,0.16-5.22
				C690.95,663.37,695.37,663.84,697.74,662.9z"/>
			<path class="st1" d="M609.64,584.65c1.48,4.49,1.44,9.01,0,13.59C609.64,593.71,609.64,589.18,609.64,584.65z"/>
			<path class="st3" d="M699.04,584.66c1.43,1.16,2.69,2.66,4.83,2.38c-0.11,5.25-0.21,10.5-0.32,15.75
				c-1.19-2.02-0.35-4.24-0.63-6.35c-0.45-3.4,1.88-7.86-3.59-9.44C699.04,586.92,699.13,585.47,699.04,584.66z"/>
			<path class="st1" d="M618.9,545.93c-1.31-1.04-0.85-2.54-1-3.88c3.1,1.07,6.38,1.74,9.04,3.86
				C624.26,545.92,621.58,545.92,618.9,545.93z"/>
			<path class="st1" d="M632.94,547.92c1.64,0.2,4.04-0.65,3.84,2.34c-0.12,1.85-1.77,1.82-3.03,1.57
				C630.69,551.2,633.4,549.19,632.94,547.92C632.94,547.92,632.94,547.92,632.94,547.92z"/>
			<path class="st1" d="M689.09,575.8c-1.13,0.05-1.93-0.39-2.03-1.59c-0.12-1.37,0.48-2.21,1.96-2.17
				c1.17,0.03,1.78,0.68,1.79,1.84C690.82,575.03,690.31,575.74,689.09,575.8z"/>
			<path class="st1" d="M688.1,707.96c-1.05,0.75-2.09,1.49-3.14,2.24c-0.65,0.27-1.29,0.53-1.94,0.8c0,0-0.14-0.15-0.14-0.15
				C682.86,706.7,685.94,708.16,688.1,707.96z"/>
			<path class="st3" d="M697.89,657.91c1.01,1.35,0.19,2.66-0.07,3.99C694.2,660.5,696.21,659.21,697.89,657.91z"/>
			<path class="st1" d="M627.67,550.34c0.28,0.12,0.55,0.24,0.83,0.36c-0.12,0.28-0.18,0.71-0.37,0.78
				c-0.2,0.08-0.54-0.19-0.81-0.31C627.43,550.89,627.55,550.62,627.67,550.34z"/>
			<path class="st1" d="M614.94,551.88c0.29-0.02,0.58-0.04,0.86-0.07c0.63,0.48,1.35,1.23,0.26,1.62
				C615.16,553.77,615.06,552.61,614.94,551.88z"/>
			<path class="st13" d="M1181.85,861.87c-12.02,4.08-23.87-0.66-35.79-0.66c-10.49,0-20.97-3.47-31.47-0.17
				c-1.88,0.59-3.07-1.97-5.01-1.06c-0.26-0.32-0.51-0.63-0.77-0.95c0.09-1.33,0.02-2.69,0.3-3.98
				c3.42-15.88,7.01-31.73,10.32-47.64c4.53-21.78,9.13-43.54,13.13-65.42c1.58-8.62,3.97-17.15,4.25-26
				c2.74-1.22,3.4-3.66,4.03-6.31c9.81-41.37,15.8-83.26,17.12-125.79c3.44,2.29,7.41,3.64,9.22,8.17
				c1.96,4.93,10.46,5.51,13.6,1.35c1.48-1.95,1.46-3.56-0.84-4.94c-4.75-2.85-4.93-4.79-1.08-10.21c1.84,0.83,1.86,3.03,3.18,4.26
				c2.13,1.98,4.62,1.77,7.02,1.07c1.77-0.52,1.98-2.13,1.26-3.7c-2.69-5.8-2.92-12.24-4.85-18.24c1.79-1.39,1.15-3.34,1.09-5.09
				c-0.88-26.48,0.06-52.86,4.39-79.05c0.21-1.26,0.03-2.67,1.64-3.86c1.78,16.53,3.54,32.78,5.27,49.03
				c1.33,12.55,2.6,25.11,3.91,37.66c0.17,1.59-0.2,3.5,2.16,3.87c-1.78,18.55-3.61,37.08-5.34,55.63
				c-1.92,20.54-3.9,41.08-5.59,61.64c-3.66,44.45-6.39,88.97-8.88,133.5C1183.25,830.61,1182.6,846.24,1181.85,861.87z"/>
			<path class="st13" d="M1290.15,855.93c-10.57-0.51-21.29-1.08-31.71-0.62c-16.29,0.72-32.77-1.19-48.94,2.37
				c-2.06,0.45-4.3,0.12-6.45,0.15c7.05-35.21,14.08-70.42,21.17-105.62c8.51-42.21,17.07-84.41,25.62-126.62
				c0.15-0.77,0.36-1.52,1.46-2.36c1.12,6.37,2.29,12.74,3.36,19.12c9.63,57.24,19.28,114.47,28.85,171.71
				C1285.84,828,1287.95,841.98,1290.15,855.93z"/>
			<path class="st12" d="M1197.74,867.84c0.27,0.95,0.45,1.94,0.82,2.85c1.11,2.73,2.9,5.39-0.42,7.96
				c-3.74,2.88-10.39,3.11-14.54,0.5c-3.26-2.05-3.67-4.85-2.57-8.17c0.57-1.72,1.27-3.4,1.91-5.09
				C1187.94,866.04,1192.58,868.88,1197.74,867.84z"/>
			<path class="st12" d="M1309.91,862.8c8.7,2.7,17.53,4.84,26.61,6.33c-0.71,2.16-2.3,1.53-3.43,1.59
				c-12.31,0.67-24.54-0.16-36.73-2c-3.87-0.58-4.45-2.62-4.09-5.76C1298.17,865.23,1304.04,864.43,1309.91,862.8z"/>
			<path class="st3" d="M1157.98,583.9c-1.32,42.53-7.31,84.41-17.12,125.79c-0.63,2.66-1.3,5.09-4.03,6.31
				c-9.29,1.65-18.39,4.62-28,4.09c-12.56,0.08-24.28-3.47-35.7-8.31c-5.23-2.24-7.22-6.24-8.02-11.88
				c-5.35-37.58-10.98-75.1-11.58-113.18c-0.34-21.4,4.73-41.54,12.93-61.07c0.51-1.22,0.97-2.47,1.46-3.7
				c2.27-0.23,3.63,1.48,5.24,2.55c11.69,7.76,24.47,12.38,38.33,14.73c6.2,1.05,10.19-0.2,13.11-5.63
				c1.84-3.42,3.55-3.09,4.47,0.63c1.26,5.05,4.13,5.38,8.54,3.69c5.48-2.1,10.02-5.78,15.26-8.22c0.51,1.77,1.01,3.55,1.52,5.32
				c-0.18,8.75,2.91,17.17,2.62,25.93C1158.05,568.55,1157.7,576.24,1157.98,583.9z"/>
			<path class="st6" d="M1249.67,380.02c1.09,2.64,2.19,5.28,3.28,7.92c-4.06,4.41-0.5,8.86,0.44,12.94
				c3.51,15.29,7.66,30.44,11.59,45.64c2.69,10.4,5.2,20.84,8.24,31.13c0.74,2.49,0.69,4.31-0.37,6.48
				c-2.66,5.47-5.37,10.93-7.69,16.54c-1.04,2.5-2.03,2.69-3.73,0.97c-5.44-5.51-10.89-11.03-16.22-16.65
				c-1.8-1.9-1.98-4.45-2.04-7.02c-0.37-16.3-0.5-32.61-1.36-48.88c-0.6-11.3-0.87-22.6-0.94-33.9c-0.02-3.01-0.56-5.48-2.93-7.41
				c1.25-2.53,0.95-5.57,2.65-7.95C1243.61,379.89,1246.64,379.96,1249.67,380.02z"/>
			<path class="st8" d="M1157.98,583.9c-0.28-7.66,0.07-15.34-0.96-22.97c3.22-0.26,6.04,1.37,9.07,1.99
				c6.62,1.36,12.99-0.04,19.4-1.25c1.93,5.99,2.16,12.44,4.85,18.23c0.73,1.57,0.52,3.18-1.26,3.7c-2.41,0.71-4.9,0.91-7.02-1.07
				c-1.32-1.23-1.34-3.43-3.18-4.26c-3.85,5.42-3.67,7.35,1.08,10.21c2.3,1.38,2.32,2.99,0.84,4.94c-3.15,4.16-11.64,3.58-13.6-1.35
				C1165.39,587.53,1161.42,586.18,1157.98,583.9z"/>
			<path class="st13" d="M1154.4,535c-0.51-1.77-1.01-3.55-1.52-5.32c-0.1-4.31,0.57-8.81-0.44-12.9
				c-2.9-11.79-3.33-23.82-4.57-35.78c0,0,0.03-0.03,0.03-0.03c1.04,0.03,2.1,0.12,2.97-0.64c2-0.07,4-0.14,6-0.2
				C1155.4,498.39,1154.17,516.66,1154.4,535z"/>
			<path class="st11" d="M1201.78,425.07c1.68,13.48-0.14,26.33-8.12,37.82C1196.37,450.28,1199.08,437.68,1201.78,425.07z"/>
			<path class="st3" d="M733.87,860.86c0.42-20.97,0.75-41.95,1.28-62.92c1.25-49.77,3.21-99.52,6.1-149.21
				c1.93-33.23,4.51-66.43,6.81-99.64c14.68,1.31,29.33,2.7,44.07,3.36c15.78,0.7,31.47-0.24,47.19-1.04
				c3.02-0.16,6.16-1.57,9.05,0.56c-1.48,24.59-2.82,49.18-4.47,73.75c-2.43,36.2-5.33,72.35-8.64,108.48
				c-2.87,31.32-6.11,62.59-9.43,93.86c-1.07,10.09-2.2,20.18-3.31,30.26c-1.22,4.15-0.37,8.79-2.96,12.62
				c-5.89,0.62-11.77,1.24-17.49-1.03c-3.33-2.77-1.31-6.75-2.27-10.06c0.03-1.33,0.13-2.66,0.08-3.99
				c-1.55-37.93-3.16-75.86-4.68-113.8c-1.58-39.25-3.08-78.5-4.62-117.86c-1.21,1.16-1.31,2.66-1.53,4.1
				c-2.07,13.99-4.1,27.99-6.19,41.97c-7.16,48.05-14.37,96.1-21.5,144.16c-2.25,15.13-4.32,30.29-6.47,45.43
				c-1.32,2.53-0.33,5.68-2.19,8.06c-6.39,1.62-12.74,1.09-19.08-0.3C734.25,865.39,734.07,863.12,733.87,860.86z"/>
			<path class="st13" d="M754.88,859.87c2.15-15.15,4.22-30.3,6.47-45.43c7.13-48.06,14.34-96.1,21.5-144.16
				c2.08-13.99,4.11-27.98,6.19-41.97c0.21-1.43,0.31-2.94,1.53-4.1c1.54,39.36,3.04,78.61,4.62,117.86
				c1.52,37.93,3.13,75.86,4.68,113.8c0.05,1.33-0.05,2.66-0.08,3.99C784.82,859.85,769.85,859.86,754.88,859.87z"/>
			<path class="st8" d="M1073.13,711.78c11.42,4.84,23.14,8.38,35.7,8.31c0.23,19.94,0.03,39.88-0.96,59.81
				c-0.32,6.45-0.67,12.96-0.72,19.36c-0.16,20.93-2.03,41.77-2.23,62.68c-2.28,0.21-4.83,0.01-4.96,3.99
				c-0.81-4.62-3.56-3.77-6.16-3.26c-0.96-0.93-2.46-1.3-2.92-2.77c-0.24-9-2.99-17.6-4.53-26.39c-2.22-12.7-4.25-25.44-6.49-38.14
				c-2.99-16.96-4.97-34.07-6.66-51.18C1072.15,733.48,1073.09,722.59,1073.13,711.78z"/>
			<path class="st12" d="M1093.79,862.66c2.6-0.5,5.35-1.36,6.16,3.26c0.13-3.98,2.68-3.78,4.96-3.99c2.17,0.2,2.5-2.08,3.91-2.9
				c0.26,0.32,0.51,0.63,0.77,0.95c0.67,5.74,3.99,10.3,7.48,15.57c-2.67,0-4.6-0.01-6.52,0c-2.15,0.01-4.73-0.48-3.27,3.26
				c0.73,1.87-0.8,1.81-1.93,1.82c-3.32,0.04-6.63,0-9.95,0.02c-1.27,0.01-2.26-0.23-2.54-1.73c-0.95-5.08-1.26-10.2-0.65-15.34
				C1092.26,863.21,1093.25,862.96,1093.79,862.66z"/>
			<path class="st12" d="M733.61,867.62c6.34,1.39,12.7,1.92,19.08,0.3c0.71,3.68-0.79,5.21-4.54,5.8
				c-14.33,2.28-28.67,3.06-43.28,1.07C714.45,872.41,724.03,870.01,733.61,867.62z"/>
			<path class="st12" d="M802.06,869.91c5.72,2.27,11.6,1.65,17.49,1.03c2.15,9.37,0.95,11.05-8.72,11.69
				c-5.25,0.34-10.09-0.99-14.61-4.02C798.26,875.58,800.91,873.24,802.06,869.91z"/>
			<path class="st4" d="M794.8,362.76c0.19-3.53,1-6.79,3.95-9.13c3.2,1.05,6.25-0.56,9.38-0.56c0.35,3.07,2.72,5.53,2.64,8.73
				c-2.82,0.86-2.89,3.19-3.12,5.57c-1.02,10.63-0.52,21.3-0.88,31.94c-0.29,8.48-0.9,16.94-1.03,25.42c-0.06,3.57-1.73,4-4.35,3.07
				c-5.61-1.98-11.16-4.13-16.7-6.27c-2.33-0.9-1.96-2.99-1.52-4.7c2.86-11.21,5.85-22.39,8.8-33.58c1.52-5.74,3-11.49,4.59-17.21
				C797.03,364.26,795.38,363.85,794.8,362.76z"/>
			<path class="st8" d="M827.74,439.97c-7.4,0.8-13.3-2.43-18.72-6.9c-2.4-1.98-2.59-3.95-0.16-6.19
				c7.72-7.08,16.33-11.78,27.25-10.98c2.41,0.18,4.16,1.6,4.35,3.35c0.69,6.16,1.78,12.51-2.21,18.13
				C835.5,441.25,831.34,439.55,827.74,439.97z"/>
			<path class="st4" d="M772.03,460.02c3.74-2.43,7.32-5.16,11.73-6.34c6.26,3.52,12.51,7.05,18.77,10.57
				c0.02,0.51,0.05,1.01,0.07,1.52c-5.69,5.68-11.6,11.16-16.8,17.33c-0.8,0.95-2.35,3.66-3.63,0.9
				C778.52,476.13,773.77,468.7,772.03,460.02z"/>
			<path class="st9" d="M802.6,465.78c-0.02-0.51-0.05-1.02-0.07-1.52c6.74,1.62,12.88,4.91,19.57,6.76
				c7.51,2.08,15.21,3.06,22.72,4.94c4.94,1.24,6.53-2.5,9.09-5l-0.03-0.03c-0.24,4.23-2.34,7.91-3.48,11.87
				c-0.66,2.28-2.55,2.32-4.45,2.16c-10.93-0.92-20.94-4.62-30.45-9.92C810.84,472.43,806.81,468.98,802.6,465.78z"/>
			<path class="st8" d="M758.8,432.11c-5.89-0.04-10.67-3.67-16.16-5.08c-2.42-0.62-1.95-2.95-0.75-4.88
				c2.94-4.73,6.93-8.18,12.09-10.27c5.55,0.3,11.45-1.27,16.35,3.13C763.57,418.77,758.7,423.79,758.8,432.11z"/>
			<path class="st9" d="M837.99,412.95c-1.9-13.27,2.09-24.84,11.14-34.79C845.42,389.75,841.71,401.35,837.99,412.95z"/>
			<path class="st9" d="M853.91,470.95c0.07-0.13,0.14-0.27,0.21-0.4c-0.08,0.12-0.16,0.24-0.24,0.37
				C853.88,470.92,853.91,470.95,853.91,470.95z"/>
			<path class="st6" d="M1147.87,481c1.23,11.96,1.67,23.99,4.57,35.78c1.01,4.09,0.34,8.59,0.44,12.9
				c-5.24,2.44-9.78,6.12-15.26,8.22c-4.42,1.69-7.29,1.36-8.54-3.69c-0.92-3.71-2.63-4.05-4.47-0.63
				c-2.93,5.43-6.92,6.68-13.11,5.63c-13.86-2.35-26.64-6.97-38.33-14.73c-1.61-1.07-2.97-2.78-5.24-2.55
				c-5.57-3.84-2.98-8.37-0.65-12.4c2.79-4.83,3.59-10.26,5.56-15.33c1.69-4.36,0.52-8.16-1.78-12.21
				c-8.65-15.2-15.84-31.07-20.38-48.05c-0.55-2.07-2.07-3.83-1.92-6.12c-0.32-0.32-0.63-0.63-0.95-0.95c0,0,0.11,0.09,0.11,0.09
				c-1.19-6.16-2.52-12.3-3.53-18.49c-0.88-5.42-0.77-10.87,0.36-16.3c2.04-9.79,7.95-15.85,17.64-17.94
				c3.73-0.8,7.39-1.78,11.04-2.84c1,0.54,2.28,0.85,2.95,1.66c5.87,7.12,13.57,10.95,22.44,12.74c-4.74,2.34-5.15,3.83-1.98,7.67
				c2.36,2.87,5.44,4.84,8.88,6.04c2.65,0.93,5,0.61,5.16-3.12c0.03-0.81-0.39-2.14,1.34-2.22c0.99,2.58,2.41,4.97,4.55,6.83
				c2.84,2.46,5.15,1.66,6.1-1.98c1.38-5.25-0.39-9.33-4.48-12.64c-1.44-1.17-3.78-1.66-3.42-4.28c5.76-1.98,5.7-6.93,5.97-11.71
				c3.62,1.29,7.77,1.03,10.93,3.7c0.3,0.29,0.6,0.58,0.9,0.87c0,0,0.09,0.07,0.09,0.07c-0.02,2.94,1.3,5.47,2.57,7.97
				c6.91,13.62,13.17,27.57,20.87,40.79c2.64,4.54,1.39,9.38,1.34,14.14c-0.82,0.01-1.66,0.13-2.46,0.02
				c-3.19-0.42-6.16,1.19-7.77,3.12c-1.87,2.24,1.86,3.54,2.9,5.4c0.94,1.68,1.85,3.43,2.48,5.24c0.54,1.57-0.39,3.81,2.18,4.36
				c-3.41,7.99-11.2,11.02-17.82,15.03c-14.64,8.88-30.8,13.91-47.67,16.65c-3.92,0.64-7.93-0.07-11.9,0.91
				c-2.47,0.61-2.89,1.75-2.56,3.82c0.05,0.33,0.15,0.65,0.21,0.97c1.68,8.81,1.64,8.59,10.55,6.7
				c15.42-3.27,29.24-9.72,41.26-19.91c1.59-1.35,3.25-1.54,5.11-1.08C1137.29,480.45,1142.55,481.04,1147.87,481z M1110.88,447.87
				c-1.05-1.04-2.34-1.54-3.77-1.73c-5.04-1.36-10.08-2.73-15.12-4.09c-3.68-9.48-7.36-18.95-11.04-28.43
				c-0.49,0.15-0.97,0.3-1.46,0.44c2.46,9.94,4.91,19.89,7.37,29.83c-0.04,1.48-0.34,2.77-1.06,4.2c-3.5,6.94-0.48,11.39,7.14,11.91
				c6.98,0.48,12.75-2.08,18.44-5.47c1.49-0.88,3.66-0.98,3.45-3.5c3.22-0.31,6.38-0.77,10.11-3.16c-5.41,0-9.71,0-14.02,0
				L1110.88,447.87z M1079.6,410.93c-0.07-0.11-0.13-0.21-0.2-0.32c-0.1,0.06-0.2,0.12-0.29,0.18c0.12,0.16,0.23,0.31,0.35,0.47
				C1079.5,411.15,1079.55,411.04,1079.6,410.93z M1127.11,447.35c-0.13-0.04-0.27-0.12-0.4-0.11c-0.05,0-0.09,0.2-0.13,0.31
				c0.13,0.04,0.27,0.12,0.39,0.11C1127.03,447.65,1127.07,447.45,1127.11,447.35z"/>
			<path class="st8" d="M1080.99,339.92c-0.28-0.6-0.4-1.42-0.87-1.75c-9.72-6.81-6.78-17.16-7.47-26.48
				c-0.13-1.77,1.09-2.09,2.48-2.46c24.81-6.69,27.9-8.66,43.11-27.14c7.44,2.35,8.28,8.4,8.78,14.93
				c0.75,9.79,1.8,19.56,2.98,29.31c0.43,3.58-0.34,6.43-2.66,9.16c-3.24,3.83-6.54,7.59-10.69,10.43c-2.21,1.51-3.66,3.29-3.9,5.98
				c-0.86-0.4-1.19-2.14-2.25-1.57c-6.06,3.22-10.76-0.7-15.66-2.96C1090.09,345.18,1085.6,342.43,1080.99,339.92z"/>
			<path class="st9" d="M1120.93,370.4c-0.26,4.78-0.21,9.73-5.97,11.71c-1.05-1.99-1.95-4.08-3.17-5.95
				c-1.68-2.57-4.49-2.96-6.94-1.91c-2.62,1.13-3.59,3.79-4.09,6.67c-0.29,1.66,2,4.64-1.95,4.89c-8.88-1.79-16.57-5.61-22.44-12.74
				c-0.67-0.81-1.95-1.12-2.95-1.66c3.73-3.23,5.3-8.06,8.6-11.61c6.38,4.82,13.64,7.8,21.22,10.07c1.92,0.58,3.28-0.6,4.83-1.71
				c2.38-1.7,2.2-5.17,4.95-6.45C1115.66,364.6,1118.29,367.5,1120.93,370.4z"/>
			<path class="st10" d="M1113.02,361.71c-2.75,1.27-2.56,4.75-4.95,6.45c-1.55,1.11-2.91,2.28-4.83,1.71
				c-7.58-2.27-14.84-5.25-21.22-10.07c-0.34-6.62-0.69-13.25-1.03-19.87c4.6,2.51,9.09,5.26,13.84,7.45
				c4.9,2.26,9.6,6.19,15.66,2.96c1.07-0.57,1.4,1.17,2.25,1.57C1113.24,355.16,1111.93,358.47,1113.02,361.71z"/>
			<path class="st9" d="M1132.76,374.97c-0.3-0.29-0.6-0.58-0.9-0.87C1132.45,374.09,1132.76,374.37,1132.76,374.97z"/>
			<path class="st8" d="M646.99,363.95c-4.33-4.57-9.74-8-13.56-13.13c-1.97-2.65-3.11-5.18-2.67-8.66
				c1.84-14.59,0.95-29.83,10.99-42.43c0.13,0.05,0.74,0.11,0.94,0.42c8.76,13.72,21.73,21.25,37.16,24.87
				c4.72,1.11,6.55,3.14,5.98,8.06c-0.86,7.33,0.22,15.19-7.28,20.13c-0.63,0.41-0.61,1.82-0.89,2.76
				c-2.58-0.55-4.25,1.31-6.28,2.29C663.68,361.97,656.75,369.05,646.99,363.95z"/>
			<path class="st10" d="M646.99,363.95c9.76,5.1,16.69-1.98,24.38-5.71c2.03-0.98,3.7-2.84,6.28-2.29
				c-0.33,5.95-0.66,11.9-0.99,17.86c-5.53,4.05-11.37,7.48-18.12,9.1c-5.84,1.4-10.19-1.87-10.62-8.01
				c-0.16-2.28,0.47-4.66-0.77-6.82C647.1,366.7,647.04,365.32,646.99,363.95z"/>
			<path class="st8" d="M1154.94,456.08c-2.58-0.55-1.64-2.79-2.18-4.36c-0.63-1.82-1.53-3.56-2.48-5.24
				c-1.04-1.85-4.76-3.15-2.9-5.4c1.61-1.94,4.58-3.54,7.77-3.12c0.81,0.11,1.64-0.01,2.46-0.02c4.57,2.06,8.71,4.55,10.57,9.63
				c0.8,2.18,0.87,3.57-1.82,4.55C1162.58,453.5,1159.05,455.6,1154.94,456.08z"/>
			<path class="st6" d="M1150.88,480.33c-0.87,0.76-1.93,0.67-2.97,0.64C1148.68,479.76,1149.75,479.9,1150.88,480.33z"/>
			<path class="st8" d="M683.02,710.99c0.65-0.27,1.3-0.53,1.94-0.8c1.93,49.41-8.86,97.22-18.25,145.2
				c-5.14-1.09-5.14-1.09-7.65,2.49c0.53-4.22-2.02-3.44-4.19-3.27c-0.57-20.04-1.92-40.05-2.23-60.12
				c-0.13-7.91-0.18-15.9-0.74-23.83c-1.13-15.75-0.96-31.51-0.92-47.28c0-1.5-0.52-2.77-1-4.13c2.91-1.12,6.08,0.62,8.8-1.14
				C667.24,717.07,675.46,715.15,683.02,710.99z"/>
			<path class="st6" d="M656.9,395.85c-4.05,2.04-1.69,5.56-1.71,8.38c-0.01,2.15,0.52,3.75-2.5,4.07c-2.85,0.3-3.5-0.87-3.41-3.34
				c0.04-1.04,0.49-2.47-1.03-2.94c-1.24-0.38-1.48,1.09-2.3,1.5c-1.45,0.72-1.99,4.58-4.37,1.85c-1.63-1.87-2-4.42,0.89-6.34
				c0.93-0.62,2.55-1.05,2.61-2.69c2.18-0.66,3.38-2.53,4.61-4.16c2.84-3.8,4.68-3.03,6.15,0.98
				C656.18,394.06,656.55,394.95,656.9,395.85z"/>
			<path class="st7" d="M1047.79,426.88c0.32,0.32,0.63,0.63,0.95,0.95C1048.23,427.7,1047.44,427.87,1047.79,426.88z"/>
			<path class="st8" d="M952.76,370.85c-1.55-9.35-0.66-18.79-1.05-28.17c1.89,0.89,0.97,2.6,0.99,3.89
				C952.81,354.65,952.76,362.75,952.76,370.85z"/>
			<path class="st10" d="M1108.82,859.03c-1.42,0.82-1.74,3.1-3.91,2.9c0.21-20.91,2.08-41.75,2.23-62.68
				c0.05-6.4,0.4-12.91,0.72-19.36c0.99-19.93,1.2-39.86,0.96-59.81c9.61,0.53,18.71-2.44,28-4.09c-0.28,8.85-2.67,17.38-4.25,26
				c-4.01,21.87-8.6,43.64-13.13,65.42c-3.31,15.91-6.9,31.75-10.32,47.64C1108.84,856.34,1108.91,857.7,1108.82,859.03z"/>
			<path class="st4" d="M1098.81,385.8c3.95-0.25,1.66-3.23,1.95-4.89c0.5-2.88,1.47-5.54,4.09-6.67c2.45-1.05,5.25-0.66,6.94,1.91
				c1.23,1.87,2.13,3.96,3.17,5.95c-0.36,2.62,1.97,3.11,3.42,4.28c4.08,3.3,5.86,7.38,4.48,12.64c-0.96,3.64-3.27,4.44-6.1,1.98
				c-2.14-1.85-3.55-4.24-4.55-6.83c-1.73,0.09-1.3,1.41-1.34,2.22c-0.15,3.72-2.51,4.04-5.16,3.12c-3.44-1.21-6.52-3.18-8.88-6.04
				C1093.66,389.64,1094.07,388.15,1098.81,385.8z"/>
			<path class="st8" d="M1114.82,451.04c0.21,2.52-1.96,2.62-3.45,3.5c-5.69,3.38-11.46,5.95-18.44,5.47
				c-7.62-0.52-10.64-4.97-7.14-11.91c0.72-1.43,1.02-2.72,1.06-4.2c1.71-0.61,3.42-1.23,5.13-1.84c5.04,1.36,10.08,2.73,15.11,4.09
				c0.4,2.44,2.43,1.35,3.77,1.73c0,0,0.04,0.01,0.04,0.01C1111.17,450.23,1113.69,449.78,1114.82,451.04z"/>
			<path class="st9" d="M1091.99,442.05c-1.71,0.61-3.42,1.23-5.13,1.84c-2.46-9.94-4.91-19.89-7.37-29.83
				c0.49-0.15,0.97-0.3,1.46-0.44C1084.63,423.09,1088.31,432.57,1091.99,442.05z"/>
			<path class="st9" d="M1114.82,451.04c-1.14-1.26-3.65-0.81-3.91-3.15c4.31,0,8.62,0,14.02,0
				C1121.2,450.27,1118.04,450.73,1114.82,451.04z"/>
			<path class="st9" d="M1110.88,447.87c-1.35-0.39-3.38,0.71-3.77-1.73C1108.54,446.33,1109.83,446.84,1110.88,447.87z"/>
			<path class="st9" d="M1079.6,410.93c-0.05,0.11-0.1,0.23-0.14,0.34c-0.12-0.16-0.23-0.31-0.35-0.47c0.1-0.06,0.2-0.12,0.29-0.18
				C1079.47,410.71,1079.53,410.82,1079.6,410.93z"/>
			<path class="st9" d="M1127.11,447.35c-0.04,0.11-0.08,0.3-0.13,0.3c-0.13,0.01-0.26-0.07-0.39-0.11c0.04-0.11,0.08-0.3,0.13-0.31
				C1126.84,447.23,1126.98,447.3,1127.11,447.35z"/>
		</g>
	</g>
</g>
</svg>
